<?xml version="1.0" standalone="no"?>
<!DOCTYPE svg PUBLIC "-//W3C//DTD SVG 20010904//EN"
 "http://www.w3.org/TR/2001/REC-SVG-20010904/DTD/svg10.dtd">
<svg version="1.0" xmlns="http://www.w3.org/2000/svg"
 width="175.000000pt" height="48.000000pt" viewBox="0 0 175.000000 48.000000"
 preserveAspectRatio="xMidYMid meet">
<metadata>
Created by potrace 1.16, written by Peter Selinger 2001-2019
</metadata>
<g transform="translate(0.000000,48.000000) scale(0.100000,-0.100000)"
fill="#000000" stroke="none">
<path d="M50 245 l0 -215 185 0 c178 0 185 1 185 20 0 19 -7 20 -165 20 l-165
0 0 180 0 180 780 0 780 0 0 -180 0 -180 -165 0 c-158 0 -165 -1 -165 -20 0
-19 7 -20 185 -20 l185 0 0 215 0 215 -820 0 -820 0 0 -215z"/>
<path d="M245 371 c-62 -26 -81 -110 -34 -156 33 -34 76 -45 118 -31 40 13 57
36 47 61 -5 14 -9 16 -18 7 -16 -16 -61 -15 -76 0 -7 7 -12 27 -12 45 0 41 26
45 58 8 12 -14 26 -25 31 -25 17 0 33 30 28 51 -4 16 -3 19 5 11 15 -15 11
-124 -4 -133 -29 -18 11 -30 93 -27 81 3 84 4 93 31 7 20 6 30 -3 40 -10 10
-16 8 -28 -10 -21 -31 -63 -31 -63 -1 0 21 1 21 13 3 20 -26 37 -10 37 35 0
45 -17 61 -37 35 -12 -18 -13 -18 -13 3 0 27 25 29 52 5 23 -20 41 -6 36 28
-3 23 -7 24 -87 27 -46 2 -88 -1 -94 -7 -5 -5 -21 -6 -40 0 -38 11 -75 11
-102 0z"/>
<path d="M584 365 c-4 -8 -1 -22 6 -30 12 -15 10 -68 -6 -130 -6 -24 -4 -25
35 -25 29 0 41 4 41 14 0 8 -4 18 -10 21 -5 3 -10 16 -9 28 0 16 6 11 19 -20
11 -24 23 -43 29 -43 5 0 16 18 25 40 19 48 28 53 15 8 -5 -18 -9 -36 -9 -40
0 -4 108 -7 241 -7 234 0 241 1 236 20 -4 15 0 19 18 19 18 0 22 -4 18 -20 -5
-18 0 -19 97 -19 83 1 103 4 107 17 4 9 1 18 -5 20 -12 4 -17 42 -6 42 3 0 27
-19 54 -41 68 -57 80 -50 80 45 0 48 4 76 12 78 6 2 9 12 5 21 -9 23 -75 23
-84 0 -4 -9 -1 -19 5 -21 12 -4 17 -32 6 -32 -4 0 -24 16 -45 35 -39 35 -78
45 -109 25 -12 -8 -12 -11 3 -28 11 -12 17 -35 17 -70 0 -86 -20 -80 -75 26
-27 51 -45 74 -61 78 -29 8 -54 -11 -54 -40 0 -11 -12 -46 -27 -76 -20 -42
-27 -50 -31 -35 -7 35 -21 41 -38 17 -8 -12 -22 -22 -30 -22 -18 0 -21 116 -2
122 6 2 9 12 5 21 -5 14 -25 16 -159 14 l-152 -2 -22 -39 -22 -39 -21 42 c-19
36 -25 41 -57 41 -22 0 -37 -6 -40 -15z"/>
<path d="M529 119 c-11 -7 -11 -11 -2 -17 6 -4 15 -20 18 -35 7 -28 29 -37 38
-14 4 8 8 9 14 1 5 -7 53 -11 122 -12 l113 -2 -7 28 c-4 15 -8 29 -11 31 -2 2
-40 4 -84 4 -57 0 -80 3 -80 12 0 15 -100 18 -121 4z"/>
<path d="M915 121 c-7 -13 28 -81 42 -81 7 0 13 5 13 11 0 8 5 7 16 -2 14 -11
19 -9 36 11 19 24 19 24 13 3 -6 -22 -3 -23 40 -23 38 0 46 3 41 15 -3 9 0 15
9 15 9 0 12 -6 9 -15 -5 -11 1 -15 21 -15 21 0 26 4 21 16 -3 9 -6 27 -6 40 0
17 -6 24 -19 24 -11 0 -23 -4 -26 -10 -9 -14 -53 -12 -57 2 -5 13 -145 21
-153 9z"/>
</g>
</svg>
