<?xml version="1.0" encoding="UTF-8"?>
<!DOCTYPE svg PUBLIC "-//W3C//DTD SVG 1.1//EN" "http://www.w3.org/Graphics/SVG/1.1/DTD/svg11.dtd">
<!-- Creator: CorelDRAW 2019 (64-Bit) -->
<svg xmlns="http://www.w3.org/2000/svg" xml:space="preserve" width="480px" height="480px" version="1.1" style="shape-rendering:geometricPrecision; text-rendering:geometricPrecision; image-rendering:optimizeQuality; fill-rule:evenodd; clip-rule:evenodd"
viewBox="0 0 480 480"
 xmlns:xlink="http://www.w3.org/1999/xlink"
 xmlns:xodm="http://www.corel.com/coreldraw/odm/2003">
 <defs>
  <style type="text/css">
   <![CDATA[
    .fil0 {fill:#FEFEFE}
    .fil1 {fill:#00913F;fill-rule:nonzero}
    .fil2 {fill:#2B2B2A;fill-rule:nonzero}
    .fil3 {fill:white;fill-rule:nonzero}
   ]]>
  </style>
 </defs>
 <g id="Layer_x0020_1">
  <metadata id="CorelCorpID_0Corel-Layer"/>
  <circle class="fil0" cx="240" cy="240" r="240"/>
  <path class="fil1" d="M240 56.38c101.41,0 183.62,82.21 183.62,183.62 0,101.41 -82.21,183.61 -183.62,183.61 -101.41,0 -183.62,-82.2 -183.62,-183.61 0,-101.41 82.21,-183.62 183.62,-183.62z"/>
  <path class="fil2" d="M37.06 251.09l-19.04 -6.33 -0.8 -11.43 0.76 -0.05 0.07 0.91c0.06,0.83 0.24,1.48 0.57,1.96 0.22,0.33 0.56,0.58 1.04,0.76 0.34,0.13 1.21,0.14 2.6,0.05l18.51 -1.3c1.43,-0.1 2.32,-0.24 2.67,-0.41 0.36,-0.18 0.64,-0.52 0.88,-1 0.24,-0.49 0.33,-1.13 0.28,-1.92l-0.07 -0.91 0.77 -0.05 1.02 14.67 -0.76 0.05 -0.06 -0.92c-0.07,-0.82 -0.26,-1.47 -0.58,-1.95 -0.22,-0.33 -0.57,-0.59 -1.05,-0.76 -0.34,-0.13 -1.21,-0.15 -2.63,-0.05l-20.81 1.46 26.37 8.97 0.03 0.5 -24.67 12.72 19.79 -1.39c1.37,-0.09 2.22,-0.19 2.54,-0.28 0.67,-0.22 1.21,-0.66 1.6,-1.29 0.4,-0.64 0.55,-1.59 0.46,-2.88l0.76 -0.05 0.67 9.61 -0.76 0.06 -0.02 -0.29c-0.03,-0.62 -0.18,-1.2 -0.42,-1.72 -0.26,-0.52 -0.57,-0.91 -0.95,-1.16 -0.38,-0.25 -0.9,-0.43 -1.55,-0.54 -0.16,-0.02 -0.86,0.02 -2.12,0.11l-17.77 1.24c-1.42,0.1 -2.3,0.24 -2.64,0.41 -0.34,0.18 -0.63,0.52 -0.87,1 -0.23,0.49 -0.33,1.13 -0.27,1.91l0.06 0.89 -0.77 0.06 -0.8 -11.48 17.96 -9.18zm8.02 -63.75l0 0 -2.4 9.65 2.37 1.81c0.79,0.6 1.47,0.96 2.05,1.11 0.77,0.19 1.41,0.02 1.92,-0.51 0.31,-0.3 0.69,-1.16 1.16,-2.55l0.74 0.18 -2.27 9.08 -0.74 -0.18c0.09,-1.01 -0.11,-1.92 -0.62,-2.72 -0.5,-0.8 -1.68,-1.92 -3.53,-3.36l-19.36 -15.21 0.09 -0.38 24.86 -4.26c2.36,-0.41 3.89,-0.85 4.58,-1.32 0.54,-0.35 0.94,-0.94 1.22,-1.76l0.74 0.19 -3.3 13.22 -0.74 -0.19 0.13 -0.54c0.27,-1.06 0.31,-1.85 0.11,-2.35 -0.13,-0.35 -0.4,-0.58 -0.81,-0.68 -0.24,-0.06 -0.5,-0.08 -0.77,-0.06 -0.13,0 -0.69,0.07 -1.66,0.22l-3.77 0.61zm-1.67 0.31l0 0 -10.41 1.72 8.35 6.54 2.06 -8.26zm1.94 -52l0 0 -0.66 -0.39 7.48 -12.96 0.66 0.39 -0.45 0.79c-0.42,0.72 -0.63,1.36 -0.62,1.94 -0.01,0.4 0.14,0.81 0.45,1.22 0.21,0.3 0.92,0.8 2.15,1.51l11.93 6.89c2.34,1.35 3.91,2.56 4.7,3.64 0.79,1.08 1.19,2.42 1.22,4.03 0.03,1.6 -0.44,3.24 -1.42,4.92 -1.18,2.05 -2.67,3.39 -4.49,4.03 -1.81,0.65 -3.36,0.6 -4.67,-0.16 -0.84,-0.49 -1.37,-1.14 -1.59,-1.95 -0.22,-0.81 -0.13,-1.6 0.31,-2.34 0.42,-0.73 1,-1.21 1.76,-1.44 0.76,-0.23 1.48,-0.15 2.16,0.25 0.33,0.19 0.6,0.41 0.81,0.64 0.09,0.11 0.28,0.48 0.58,1.09 0.28,0.61 0.54,0.97 0.75,1.09 0.31,0.17 0.67,0.17 1.07,-0.01 0.61,-0.25 1.12,-0.75 1.54,-1.48 0.29,-0.52 0.41,-1.02 0.34,-1.51 -0.08,-0.48 -0.34,-0.96 -0.82,-1.43 -0.48,-0.45 -1.99,-1.41 -4.53,-2.88l-13.03 -7.52c-1.25,-0.72 -2.08,-1.11 -2.46,-1.15 -0.39,-0.04 -0.82,0.07 -1.29,0.34 -0.46,0.27 -0.89,0.74 -1.29,1.42l-0.59 1.03zm33.84 -46.1l0 0 8.24 7.95 0.39 -0.4c1.23,-1.28 1.73,-2.6 1.49,-3.95 -0.26,-1.36 -1.09,-2.88 -2.5,-4.56l0.54 -0.56 10.6 10.24 -0.54 0.56c-1.28,-0.99 -2.46,-1.65 -3.57,-1.99 -1.11,-0.32 -2.04,-0.35 -2.78,-0.09 -0.74,0.26 -1.58,0.88 -2.51,1.84l5.7 5.51c1.12,1.07 1.84,1.68 2.18,1.83 0.34,0.15 0.72,0.17 1.13,0.06 0.41,-0.1 0.89,-0.44 1.45,-1.02l1.16 -1.21c1.83,-1.89 2.85,-3.83 3.08,-5.82 0.23,-1.98 -0.32,-4.08 -1.63,-6.32l0.54 -0.55 5.55 7.12 -16.9 17.51 -0.55 -0.53 0.65 -0.68c0.56,-0.58 0.92,-1.16 1.05,-1.72 0.12,-0.39 0.07,-0.82 -0.14,-1.29 -0.12,-0.34 -0.7,-1 -1.71,-1.98l-13.33 -12.86c-0.91,-0.89 -1.5,-1.4 -1.76,-1.56 -0.44,-0.24 -0.89,-0.3 -1.34,-0.23 -0.64,0.12 -1.28,0.49 -1.91,1.15l-0.65 0.68 -0.56 -0.54 16.37 -16.94 5.99 5.78 -0.55 0.56c-1.74,-1.12 -3.18,-1.73 -4.33,-1.82 -1.13,-0.09 -2.32,0.19 -3.54,0.86 -0.72,0.39 -1.81,1.34 -3.29,2.88l-2.02 2.09zm68.22 -31.04l0 0 3.86 9.16 -21.86 12.12 -0.37 -0.67 0.82 -0.45c0.71,-0.4 1.22,-0.84 1.51,-1.34 0.22,-0.34 0.3,-0.77 0.24,-1.28 -0.02,-0.36 -0.38,-1.16 -1.06,-2.4l-8.98 -16.19c-0.7,-1.26 -1.2,-2.01 -1.51,-2.25 -0.31,-0.24 -0.72,-0.37 -1.27,-0.37 -0.53,-0.02 -1.15,0.17 -1.83,0.55l-0.82 0.46 -0.37 -0.68 13.13 -7.28 0.37 0.67 -1.07 0.6c-0.72,0.4 -1.22,0.84 -1.52,1.34 -0.22,0.34 -0.3,0.76 -0.26,1.28 0.03,0.37 0.38,1.17 1.07,2.4l8.69 15.68c0.7,1.26 1.22,2.03 1.55,2.29 0.35,0.26 0.76,0.37 1.29,0.3 0.36,-0.06 1.12,-0.41 2.28,-1.05l2.06 -1.14c1.3,-0.73 2.26,-1.56 2.89,-2.5 0.6,-0.94 0.96,-2.09 1.04,-3.43 0.09,-1.36 -0.12,-3.14 -0.63,-5.41l0.75 -0.41zm43.16 -6.49l0 0 0.2 0.74 -14.22 3.81 -0.2 -0.74 0.91 -0.24c0.79,-0.22 1.38,-0.53 1.78,-0.93 0.3,-0.28 0.49,-0.68 0.55,-1.19 0.07,-0.35 -0.09,-1.21 -0.45,-2.58l-4.79 -17.88c-0.38,-1.39 -0.69,-2.24 -0.93,-2.55 -0.24,-0.31 -0.61,-0.54 -1.13,-0.67 -0.52,-0.14 -1.16,-0.11 -1.92,0.09l-0.9 0.24 -0.2 -0.74 14.21 -3.81 0.2 0.74 -0.9 0.24c-0.79,0.21 -1.39,0.53 -1.79,0.93 -0.3,0.29 -0.49,0.68 -0.56,1.19 -0.06,0.36 0.09,1.22 0.46,2.58l4.79 17.89c0.37,1.39 0.68,2.24 0.92,2.54 0.25,0.31 0.63,0.53 1.15,0.67 0.52,0.15 1.16,0.12 1.92,-0.09l0.9 -0.24zm42.94 -34.69l0 0 0.89 9.34 -0.85 0.06c-0.56,-2.32 -1.67,-4.14 -3.35,-5.46 -1.66,-1.32 -3.41,-1.92 -5.23,-1.79 -1.41,0.1 -2.5,0.55 -3.26,1.36 -0.77,0.81 -1.12,1.71 -1.06,2.7 0.04,0.61 0.24,1.15 0.56,1.62 0.43,0.62 1.13,1.22 2.06,1.79 0.68,0.41 2.23,1.11 4.66,2.1 3.4,1.4 5.72,2.77 6.96,4.12 1.25,1.36 1.92,2.96 2.05,4.81 0.16,2.35 -0.61,4.43 -2.32,6.24 -1.71,1.82 -3.98,2.84 -6.79,3.03 -0.88,0.06 -1.73,0.03 -2.53,-0.09 -0.8,-0.13 -1.81,-0.4 -3.03,-0.81 -0.68,-0.23 -1.24,-0.33 -1.66,-0.3 -0.36,0.03 -0.73,0.19 -1.11,0.49 -0.38,0.3 -0.68,0.75 -0.89,1.33l-0.76 0.05 -0.74 -10.59 0.76 -0.06c0.82,2.94 2.14,5.13 3.99,6.58 1.84,1.44 3.77,2.1 5.76,1.96 1.55,-0.11 2.75,-0.62 3.61,-1.52 0.86,-0.91 1.25,-1.92 1.17,-3.04 -0.04,-0.66 -0.26,-1.29 -0.66,-1.9 -0.39,-0.58 -0.97,-1.14 -1.73,-1.65 -0.76,-0.51 -2.08,-1.15 -3.96,-1.91 -2.64,-1.09 -4.55,-2.02 -5.73,-2.83 -1.19,-0.8 -2.11,-1.73 -2.79,-2.78 -0.68,-1.05 -1.07,-2.23 -1.15,-3.55 -0.16,-2.23 0.53,-4.19 2.06,-5.88 1.54,-1.69 3.56,-2.62 6.05,-2.79 0.91,-0.07 1.8,-0.02 2.67,0.14 0.66,0.12 1.48,0.37 2.44,0.76 0.96,0.38 1.63,0.56 2,0.53 0.36,-0.02 0.63,-0.16 0.82,-0.39 0.2,-0.24 0.36,-0.77 0.47,-1.63l0.62 -0.04zm105.23 23.83l0 0 12.71 7.04 -0.38 0.67 -0.63 -0.35c-0.95,-0.52 -1.67,-0.79 -2.14,-0.79 -0.46,0 -0.87,0.14 -1.21,0.4 -0.35,0.27 -0.92,1.11 -1.7,2.51l-6.67 12.06c-1.23,2.2 -1.87,3.74 -1.93,4.65 -0.06,0.9 0.15,1.79 0.65,2.69 0.5,0.89 1.34,1.66 2.5,2.31 1.33,0.74 2.63,1.07 3.9,0.98 1.28,-0.07 2.43,-0.51 3.48,-1.31 1.05,-0.79 2.3,-2.5 3.75,-5.11l5.57 -10.04c0.61,-1.1 0.93,-1.95 0.96,-2.56 0.03,-0.59 -0.07,-1.08 -0.33,-1.45 -0.38,-0.58 -1.08,-1.15 -2.08,-1.7l0.38 -0.67 8.51 4.72 -0.37 0.67 -0.51 -0.29c-0.69,-0.37 -1.34,-0.56 -1.95,-0.53 -0.61,0.02 -1.18,0.25 -1.69,0.7 -0.38,0.3 -0.84,0.95 -1.4,1.95l-5.18 9.36c-1.61,2.89 -2.96,4.87 -4.04,5.94 -1.1,1.08 -2.68,1.73 -4.75,2 -2.08,0.26 -4.4,-0.32 -6.95,-1.74 -2.13,-1.18 -3.62,-2.37 -4.47,-3.59 -1.15,-1.65 -1.72,-3.26 -1.71,-4.84 0.03,-1.57 0.6,-3.38 1.74,-5.43l6.68 -12.05c0.78,-1.42 1.2,-2.34 1.23,-2.78 0.03,-0.42 -0.09,-0.85 -0.36,-1.27 -0.27,-0.43 -0.93,-0.91 -1.98,-1.48l0.37 -0.67zm56.76 67.18l0 0 -7.84 6.11 -17.37 -17.98 0.55 -0.54 0.65 0.68c0.57,0.58 1.13,0.96 1.68,1.11 0.4,0.13 0.83,0.1 1.3,-0.09 0.34,-0.12 1.02,-0.67 2.04,-1.65l13.32 -12.86c1.04,-1 1.63,-1.69 1.79,-2.04 0.15,-0.37 0.16,-0.8 0.03,-1.33 -0.13,-0.51 -0.47,-1.06 -1.02,-1.63l-0.64 -0.67 0.55 -0.54 10.43 10.8 -0.56 0.54 -0.85 -0.88c-0.56,-0.59 -1.12,-0.96 -1.68,-1.12 -0.39,-0.12 -0.82,-0.1 -1.31,0.08 -0.34,0.12 -1.02,0.67 -2.04,1.65l-12.9 12.46c-1.03,1 -1.64,1.7 -1.8,2.09 -0.17,0.4 -0.16,0.83 0.04,1.32 0.15,0.34 0.69,0.98 1.61,1.93l1.63 1.69c1.04,1.07 2.09,1.79 3.16,2.14 1.07,0.35 2.27,0.39 3.58,0.12 1.33,-0.26 3.01,-0.93 5.06,-2l0.59 0.61zm23.88 39.38l0 0 -4.67 -8.78 -2.98 0.24c-0.99,0.09 -1.74,0.27 -2.26,0.55 -0.7,0.37 -1.07,0.93 -1.1,1.66 -0.02,0.44 0.27,1.33 0.85,2.67l-0.67 0.36 -4.39 -8.26 0.67 -0.36c0.61,0.81 1.37,1.36 2.28,1.6 0.91,0.26 2.54,0.31 4.88,0.14l24.55 -1.65 0.2 0.35 -15.62 19.79c-1.48,1.89 -2.32,3.23 -2.53,4.05 -0.16,0.62 -0.07,1.32 0.28,2.12l-0.68 0.36 -6.4 -12.03 0.68 -0.36 0.26 0.49c0.52,0.97 1.02,1.58 1.49,1.82 0.34,0.16 0.69,0.16 1.06,-0.04 0.22,-0.12 0.43,-0.27 0.62,-0.47 0.1,-0.09 0.46,-0.51 1.08,-1.28l2.4 -2.97zm1.02 -1.35l0 0 6.6 -8.25 -10.59 0.74 3.99 7.51zm19.45 57.29l0 0 19.68 3.97 2.18 11.24 -0.75 0.15 -0.18 -0.9c-0.16,-0.81 -0.43,-1.44 -0.8,-1.87 -0.27,-0.3 -0.64,-0.51 -1.13,-0.64 -0.35,-0.07 -1.21,0.01 -2.58,0.28l-18.22 3.54c-1.41,0.27 -2.28,0.52 -2.6,0.73 -0.33,0.23 -0.58,0.59 -0.75,1.1 -0.18,0.52 -0.2,1.17 -0.05,1.94l0.18 0.9 -0.75 0.14 -2.81 -14.43 0.75 -0.15 0.18 0.91c0.16,0.81 0.43,1.43 0.81,1.87 0.25,0.3 0.64,0.51 1.14,0.62 0.35,0.09 1.22,0 2.61,-0.28l20.48 -3.98 -27.27 -5.69 -0.09 -0.5 22.93 -15.61 -19.46 3.78c-1.36,0.26 -2.19,0.46 -2.49,0.59 -0.64,0.31 -1.13,0.8 -1.43,1.48 -0.32,0.68 -0.36,1.64 -0.11,2.9l-0.75 0.15 -1.84 -9.46 0.75 -0.15 0.06 0.29c0.1,0.62 0.32,1.17 0.62,1.65 0.32,0.49 0.68,0.84 1.08,1.04 0.41,0.21 0.95,0.31 1.62,0.35 0.15,-0.01 0.85,-0.13 2.08,-0.37l17.49 -3.4c1.4,-0.27 2.25,-0.51 2.57,-0.73 0.32,-0.22 0.57,-0.58 0.74,-1.09 0.17,-0.52 0.19,-1.16 0.04,-1.93l-0.17 -0.88 0.76 -0.15 2.19 11.29 -16.71 11.3zm-0.15 64.25l0 0 1.22 -9.87 -2.59 -1.51c-0.85,-0.5 -1.57,-0.78 -2.16,-0.85 -0.79,-0.1 -1.41,0.15 -1.85,0.74 -0.27,0.33 -0.54,1.23 -0.84,2.67l-0.76 -0.1 1.14 -9.29 0.77 0.1c0.03,1.02 0.34,1.9 0.94,2.62 0.6,0.73 1.91,1.7 3.92,2.91l21.06 12.73 -0.04 0.39 -24.15 7.26c-2.3,0.7 -3.76,1.32 -4.39,1.87 -0.48,0.42 -0.81,1.05 -0.99,1.89l-0.76 -0.09 1.66 -13.52 0.76 0.09 -0.07 0.56c-0.13,1.08 -0.07,1.87 0.18,2.34 0.18,0.33 0.48,0.52 0.9,0.58 0.24,0.02 0.49,0.01 0.77,-0.04 0.13,-0.01 0.67,-0.15 1.62,-0.43l3.66 -1.05zm1.62 -0.52l0 0 10.13 -2.97 -9.09 -5.48 -1.04 8.45z"/>
  <path class="fil2" d="M51.33 356.45l-0.67 0.38 -7.39 -12.8 0.67 -0.39 0.47 0.82c0.4,0.71 0.87,1.21 1.37,1.49 0.34,0.22 0.77,0.29 1.28,0.22 0.36,-0.03 1.16,-0.4 2.39,-1.11l16.11 -9.3c1.25,-0.72 2,-1.24 2.23,-1.56 0.24,-0.31 0.36,-0.74 0.36,-1.27 0,-0.54 -0.2,-1.16 -0.59,-1.84l-0.47 -0.81 0.67 -0.39 7.39 12.8 -0.67 0.39 -0.47 -0.81c-0.41,-0.72 -0.86,-1.22 -1.37,-1.5 -0.35,-0.21 -0.77,-0.3 -1.29,-0.24 -0.36,0.04 -1.16,0.41 -2.39,1.12l-16.11 9.29c-1.25,0.73 -2,1.25 -2.23,1.56 -0.23,0.33 -0.35,0.76 -0.35,1.29 0,0.55 0.19,1.16 0.59,1.84l0.47 0.82zm45.37 14.62l0 0 -3.31 22.17 8.89 -8.3c1.24,-1.15 1.92,-2.11 2.02,-2.87 0.13,-1.04 -0.34,-2.12 -1.44,-3.25l0.57 -0.54 6.37 6.83 -0.56 0.54c-0.93,-0.78 -1.62,-1.22 -2.08,-1.36 -0.46,-0.14 -0.97,-0.1 -1.52,0.11 -0.56,0.2 -1.33,0.76 -2.3,1.67l-17.22 16.06 -0.49 -0.52 4.18 -30.04 -13.14 12.26c-1.2,1.11 -1.74,2.13 -1.65,3.06 0.09,0.94 0.46,1.75 1.11,2.45l0.46 0.49 -0.57 0.53 -6.84 -7.33 0.57 -0.53c1.07,1.13 2.04,1.7 2.91,1.72 0.88,0.02 1.87,-0.48 2.96,-1.5l14.6 -13.61 0.14 -0.96c0.14,-0.95 0.14,-1.67 0,-2.17 -0.13,-0.49 -0.5,-1.07 -1.06,-1.72l0.57 -0.52 6.83 7.33zm17.39 52.8l0 0 0.4 -0.66 0.8 0.48c0.71,0.42 1.31,0.64 1.82,0.64 0.51,0 0.96,-0.13 1.37,-0.41 0.27,-0.18 0.77,-0.9 1.52,-2.15l9.58 -15.94c0.75,-1.24 1.14,-2.05 1.2,-2.44 0.06,-0.39 -0.05,-0.82 -0.31,-1.29 -0.26,-0.48 -0.73,-0.92 -1.41,-1.33l-0.8 -0.48 0.4 -0.66 10.84 6.52c2.91,1.74 4.99,3.53 6.28,5.38 1.58,2.26 2.34,4.71 2.28,7.32 -0.05,2.64 -0.83,5.18 -2.31,7.64 -1.02,1.71 -2.24,3.11 -3.65,4.22 -1.42,1.1 -2.84,1.86 -4.26,2.28 -1.44,0.41 -2.89,0.56 -4.38,0.44 -1.48,-0.12 -3.13,-0.52 -4.95,-1.19 -0.82,-0.3 -2.01,-0.92 -3.57,-1.86l-10.85 -6.51zm22.98 -17.31l0 0 -11.36 18.92c-0.61,0.99 -0.92,1.63 -0.97,1.92 -0.03,0.28 0.02,0.55 0.18,0.8 0.21,0.38 0.62,0.75 1.23,1.11 1.99,1.2 3.92,1.43 5.78,0.7 2.53,-0.98 4.96,-3.39 7.28,-7.25 1.87,-3.11 2.87,-5.89 3.01,-8.34 0.1,-1.92 -0.3,-3.51 -1.2,-4.76 -0.64,-0.88 -1.95,-1.91 -3.95,-3.1zm54.97 21.34l0 0c4.37,1.07 7.53,3.35 9.47,6.8 1.93,3.47 2.32,7.22 1.16,11.26 -0.99,3.44 -2.86,6.19 -5.63,8.23 -3.67,2.71 -7.95,3.36 -12.83,1.96 -4.88,-1.39 -8.19,-4.14 -9.91,-8.22 -1.36,-3.23 -1.53,-6.64 -0.5,-10.24 1.16,-4.03 3.5,-7 7.01,-8.9 3.52,-1.91 7.26,-2.21 11.23,-0.89zm-0.13 1.34l0 0c-2.49,-0.71 -4.74,0.02 -6.76,2.19 -1.66,1.78 -3.05,4.62 -4.16,8.52 -1.33,4.64 -1.5,8.31 -0.51,10.99 0.69,1.87 2.06,3.11 4.11,3.69 1.37,0.4 2.62,0.39 3.73,-0.01 1.42,-0.52 2.73,-1.62 3.93,-3.32 1.19,-1.68 2.22,-4.04 3.08,-7.06 1.04,-3.59 1.47,-6.38 1.32,-8.35 -0.17,-1.98 -0.65,-3.48 -1.48,-4.52 -0.83,-1.03 -1.91,-1.74 -3.26,-2.13zm48.18 4.99l0 0 14.56 17.04 -0.43 -12.14c-0.06,-1.7 -0.34,-2.84 -0.85,-3.42 -0.69,-0.78 -1.82,-1.13 -3.39,-1.05l-0.03 -0.77 9.33 -0.33 0.03 0.78c-1.19,0.19 -1.98,0.42 -2.38,0.67 -0.41,0.26 -0.71,0.67 -0.92,1.23 -0.22,0.55 -0.29,1.5 -0.25,2.83l0.82 23.53 -0.71 0.03 -19.93 -22.87 0.63 17.97c0.06,1.63 0.47,2.71 1.23,3.25 0.76,0.55 1.63,0.81 2.58,0.77l0.67 -0.02 0.03 0.77 -10.03 0.34 -0.03 -0.76c1.57,-0.07 2.63,-0.43 3.22,-1.08 0.59,-0.64 0.86,-1.72 0.81,-3.22l-0.7 -19.94 -0.63 -0.73c-0.62,-0.73 -1.16,-1.2 -1.63,-1.43 -0.47,-0.22 -1.14,-0.33 -1.99,-0.32l-0.03 -0.78 10.02 -0.35zm54.84 -6.16l0 0 3.18 11.06 0.53 -0.15c1.73,-0.5 2.82,-1.4 3.29,-2.71 0.46,-1.29 0.5,-3.04 0.11,-5.21l0.76 -0.21 4.08 14.22 -0.76 0.22c-0.61,-1.5 -1.31,-2.67 -2.1,-3.52 -0.81,-0.84 -1.59,-1.33 -2.37,-1.48 -0.78,-0.14 -1.82,-0.03 -3.12,0.34l2.2 7.66c0.43,1.5 0.75,2.39 0.98,2.69 0.22,0.3 0.54,0.51 0.95,0.62 0.41,0.12 0.99,0.06 1.78,-0.16l1.62 -0.47c2.54,-0.72 4.4,-1.9 5.59,-3.52 1.2,-1.6 1.78,-3.71 1.76,-6.31l0.74 -0.21 1.26 8.99 -23.49 6.73 -0.22 -0.73 0.9 -0.27c0.79,-0.22 1.39,-0.55 1.79,-0.96 0.29,-0.29 0.46,-0.68 0.52,-1.2 0.06,-0.35 -0.11,-1.22 -0.5,-2.59l-5.12 -17.87c-0.36,-1.24 -0.61,-1.98 -0.76,-2.24 -0.26,-0.42 -0.62,-0.72 -1.05,-0.87 -0.62,-0.23 -1.37,-0.21 -2.24,0.04l-0.91 0.26 -0.21 -0.75 22.75 -6.52 2.31 8.04 -0.77 0.22c-0.95,-1.85 -1.9,-3.11 -2.84,-3.76 -0.95,-0.66 -2.12,-1.01 -3.52,-1.03 -0.82,-0.03 -2.25,0.25 -4.31,0.84l-2.81 0.81zm52.1 -26.86l0 0 5.33 7.78 -0.72 0.46c-1.62,-1.76 -3.49,-2.81 -5.6,-3.16 -2.1,-0.35 -3.92,-0.03 -5.46,0.98 -1.19,0.77 -1.93,1.69 -2.21,2.79 -0.29,1.08 -0.15,2.04 0.38,2.87 0.34,0.52 0.77,0.91 1.28,1.16 0.69,0.33 1.59,0.52 2.68,0.56 0.8,0.04 2.51,-0.11 5.13,-0.41 3.66,-0.44 6.37,-0.36 8.12,0.22 1.75,0.59 3.13,1.66 4.14,3.23 1.29,1.98 1.62,4.19 1.01,6.62 -0.62,2.43 -2.12,4.42 -4.5,5.96 -0.74,0.49 -1.5,0.87 -2.27,1.15 -0.76,0.28 -1.78,0.53 -3.05,0.77 -0.72,0.13 -1.25,0.31 -1.61,0.54 -0.3,0.2 -0.55,0.53 -0.73,0.98 -0.19,0.45 -0.23,0.99 -0.13,1.6l-0.65 0.42 -5.82 -8.96 0.65 -0.41c2.15,2.18 4.38,3.46 6.71,3.83 2.32,0.38 4.33,0.02 6.02,-1.08 1.31,-0.85 2.11,-1.88 2.43,-3.1 0.31,-1.22 0.16,-2.3 -0.45,-3.24 -0.37,-0.56 -0.87,-1 -1.51,-1.34 -0.63,-0.33 -1.41,-0.53 -2.32,-0.61 -0.91,-0.08 -2.39,0 -4.42,0.24 -2.84,0.34 -4.98,0.45 -6.41,0.32 -1.43,-0.14 -2.7,-0.5 -3.8,-1.09 -1.11,-0.59 -2.02,-1.44 -2.74,-2.55 -1.23,-1.89 -1.57,-3.95 -1.05,-6.18 0.52,-2.23 1.84,-4.03 3.95,-5.4 0.77,-0.5 1.58,-0.9 2.42,-1.18 0.64,-0.21 1.48,-0.39 2.51,-0.52 1.03,-0.13 1.71,-0.3 2.02,-0.5 0.3,-0.2 0.48,-0.45 0.53,-0.75 0.06,-0.3 -0.07,-0.85 -0.38,-1.66l0.52 -0.34zm53.38 -8.27l0 0 0.53 0.56 -10.63 10.26 -0.54 -0.55 0.68 -0.65c0.59,-0.57 0.96,-1.14 1.12,-1.69 0.13,-0.39 0.09,-0.82 -0.1,-1.3 -0.11,-0.35 -0.67,-1.03 -1.66,-2.06l-12.92 -13.37c-1,-1.05 -1.68,-1.64 -2.05,-1.79 -0.35,-0.16 -0.79,-0.17 -1.32,-0.04 -0.52,0.13 -1.07,0.47 -1.64,1.02l-0.68 0.65 -0.53 -0.56 10.63 -10.27 0.54 0.56 -0.68 0.65c-0.58,0.57 -0.96,1.13 -1.12,1.69 -0.12,0.4 -0.1,0.83 0.09,1.31 0.12,0.35 0.67,1.04 1.66,2.05l12.92 13.38c1,1.04 1.68,1.64 2.05,1.79 0.37,0.15 0.81,0.16 1.33,0.03 0.53,-0.13 1.08,-0.46 1.64,-1.01l0.68 -0.66zm23.35 -42.5l0 0 -5.29 8.46 1.71 2.47c0.57,0.82 1.11,1.38 1.61,1.7 0.68,0.42 1.34,0.46 2,0.11 0.39,-0.19 1.02,-0.89 1.9,-2.08l0.64 0.41 -4.97 7.97 -0.66 -0.41c0.4,-0.94 0.49,-1.87 0.25,-2.78 -0.23,-0.92 -1.01,-2.37 -2.33,-4.32l-13.78 -20.53 0.21 -0.34 25.07 3.64c2.38,0.35 3.98,0.4 4.79,0.17 0.62,-0.17 1.19,-0.61 1.71,-1.3l0.65 0.41 -7.25 11.6 -0.65 -0.41 0.29 -0.48c0.58,-0.93 0.86,-1.67 0.84,-2.21 -0.03,-0.38 -0.21,-0.67 -0.57,-0.89 -0.21,-0.14 -0.45,-0.24 -0.72,-0.3 -0.13,-0.05 -0.68,-0.15 -1.66,-0.3l-3.79 -0.59zm-1.68 -0.22l0 0 -10.49 -1.59 5.95 8.84 4.54 -7.25z"/>
  <path class="fil1" d="M240 0c-132.52,0 -240,107.48 -240,240 0,132.52 107.48,240 240,240 132.52,0 240,-107.48 240,-240 0,-132.52 -107.48,-240 -240,-240zm0 475.14l0 0c-129.86,0 -235.14,-105.28 -235.14,-235.14 0,-129.87 105.28,-235.14 235.14,-235.14 129.86,0 235.14,105.27 235.14,235.14 0,129.86 -105.28,235.14 -235.14,235.14z"/>
  <polygon class="fil3" points="198.53,282.68 198.53,265.16 194.9,265.16 194.9,271.69 187.68,271.69 187.68,265.16 184.05,265.16 184.05,282.68 187.68,282.68 187.68,274.91 194.9,274.91 194.9,282.68 "/>
  <path class="fil3" d="M222.32 282.68l3.78 0 -6.31 -17.52 -4.17 0 -6.23 17.52 3.8 0 1.15 -3.61 6.79 0 1.19 3.61zm-7.03 -6.55l0 0 2.43 -7.46 2.44 7.46 -4.87 0z"/>
  <polygon class="fil3" points="236.95,265.16 236.95,282.68 249.11,282.68 249.11,279.44 240.56,279.44 240.56,265.16 "/>
  <path class="fil3" d="M268.71 265.16l-4.16 0 -6.23 17.52 3.79 0 1.16 -3.61 6.79 0 1.19 3.61 3.78 0 -6.32 -17.52zm-4.49 10.97l0 0 2.43 -7.46 2.43 7.46 -4.86 0z"/>
  <polygon class="fil3" points="285.88,265.16 285.88,282.68 298.03,282.68 298.03,279.44 289.49,279.44 289.49,265.16 "/>
  <path class="fil3" d="M369.8 287.24c0,-1.42 0.53,-3.03 1.34,-4.17 0,-1.14 0.27,-2.08 0.94,-2.95 0.53,-2.75 0.87,-5.63 2.08,-8.12 -0.14,-0.2 -0.2,-0.4 -0.27,-0.6 0.94,-3.35 1.61,-6.71 1.75,-10.2 1.14,-3.08 0.33,-6.91 1.14,-10.2 -1.22,-4.96 1.07,-10.19 -0.07,-14.96 -2.55,0.74 -5.37,0.34 -8.05,0.34l0 -0.61c-3.56,0 -20.33,-1.21 -20.8,-2.21 -0.54,0 -1.41,0.53 -1.75,0.07 -2.88,-0.2 -2.95,1.07 -4.22,-1.95 -0.61,-0.81 -2.55,-2.68 -2.55,-3.76 -1.01,-0.33 -1.75,-1.21 -2.42,-2.15l-0.4 0c-0.13,0.54 -2.42,2.62 -3.02,2.62 0,0.34 0.06,0.67 0.13,1.01 -1.27,0.94 -3.15,2.01 -3.76,3.62 -3.89,1.41 -1.87,4.5 -0.94,7.25 0.54,0.06 1.01,-0.14 1.35,0.13 0.94,-0.94 9.39,0.47 11,0.33 0.14,0.08 0.27,0.14 0.47,0.28 0.87,-0.41 1.28,0 2.08,0.26 5.7,0.14 11.54,1.01 16.91,1.01 0.06,0.14 0.13,0.27 0.2,0.47 1.27,0.2 2.55,0.47 3.89,0.74 0.14,0.33 0.34,0.67 0.54,1.07 3.02,0.74 1.81,4.97 1.21,6.98 -1.75,1.27 -2.75,2.55 -5.04,2.82 -0.13,0.13 -0.26,0.27 -0.33,0.47 -1.68,0 -6.91,0.67 -8.25,-0.2 -1.55,0.2 -2.89,-0.2 -4.43,-0.47 0.13,-2.08 -0.34,-3.9 -0.67,-5.97 -0.81,0 -1.28,0.2 -1.95,0 -0.07,0.2 -0.13,0.4 -0.13,0.66 -3.36,1.01 -6.38,4.03 -9.87,4.43 0.07,1.68 0.61,3.36 0.61,4.9 0.87,0.2 2.01,0.54 2.75,0.2 0.27,0.07 0.53,0.14 0.8,0.27 0.07,-0.13 0.21,-0.2 0.34,-0.27 2.88,0.2 6.44,0.2 9.19,0.94 3.69,0.2 6.51,0.74 9.73,2.55l0 0.47c1.21,0.94 1.41,1.68 1.54,3.16 2.82,1.87 1.07,11.81 -1.07,13.95 -0.06,0.34 -0.06,0.67 -0.06,1.01 -0.41,0.13 -0.81,0.27 -1.15,0.47 -0.07,0.27 -0.07,0.53 -0.07,0.8 -0.27,0.07 -0.46,0.14 -0.67,0.2 -0.06,0.2 -0.13,0.41 -0.2,0.61 -0.33,0.07 -0.6,0.13 -0.87,0.2 -0.27,0.8 -2.82,2.08 -2.82,0.94 -1.54,1.07 -4.69,0.8 -6.51,0.67 -0.06,-0.2 -0.06,-0.34 -0.06,-0.47 -2.96,0.94 -4.5,-1.54 -7.05,-2.28 -1.81,-1.81 -2.01,-2.55 -2.48,-2.95 -0.2,-1.82 -0.2,-1.82 -0.47,-2.02 0.47,-4.89 -0.54,-4.29 -3.56,-7.44 -2.28,0 -4.29,-2.02 -6.84,-2.02 -0.41,0.67 -0.87,1.34 -1.61,1.68 -0.94,3.42 -5.23,6.91 -8.72,7.25 -0.47,0.2 -0.95,0.4 -1.35,0.67 -0.06,1.27 -0.46,1.88 -0.2,3.15 2.29,-0.54 9.8,1.07 11.34,1.21 1.08,0.8 2.89,1.48 4.16,1.94 1.68,1.48 5.04,2.09 6.18,3.97 1.07,0 2.35,0.93 2.68,1.87 0.4,-0.2 3.89,2.28 4.56,2.62 1.21,2.01 5.7,3.42 6.11,5.7 0.13,0 0.33,0 0.53,0.07 0.61,2.48 -0.87,8.52 -4.02,8.52 -0.2,0.2 -0.41,0.4 -0.61,0.67l-1.2 0c-0.07,0.07 -0.14,0.2 -0.2,0.34 -1.95,-0.14 -3.83,-0.21 -5.7,-0.27 -0.75,-0.67 -1.42,-1.28 -2.09,-1.88 -1.47,0.33 -2.35,-1.68 -3.75,-1.68 -0.14,-0.27 -0.27,-0.54 -0.34,-0.74 -1.61,-0.74 -5.64,-2.88 -6.31,-4.69 -1.54,-0.61 -2.61,-1.95 -3.62,-3.29 0.2,-0.2 0.47,-4.83 0.47,-4.9 1.28,-1.48 -0.54,-1.54 -0.54,-2.62 -0.94,0.2 -1.74,-0.4 -2.41,-1 -2.82,-0.4 -4.3,0 -5.91,2.28 -1.88,-0.2 -3.69,-0.07 -5.57,-0.34 -0.74,0.81 -1.61,0.88 -1.61,2.22 0.61,0.2 1.55,0.53 2.15,0.07 2.61,1.2 6.51,3.55 7.79,6.17 0.26,0 0.53,0 0.86,0.07 0.21,0.33 0.41,0.66 0.61,1.07 0.33,0.07 0.74,0.13 1.14,0.2 0,0.27 0,0.53 0.07,0.87 0.47,0.14 0.94,0.34 1.47,0.54 1.61,2.61 5.44,3.89 6.44,6.91 2.15,0.4 3.16,2.82 4.9,3.96 1.41,1.75 2.82,3.49 4.3,5.24l0.6 0c0.67,1.6 1.07,1.87 0.47,3.41 0,1.08 -0.67,1.41 -1.07,2.42 -0.54,-0.27 -1.95,1.41 -2.35,1.75 -0.81,0 -2.28,0.46 -3.83,0.46 -1.27,-0.8 -2.54,-1.81 -4.02,-2.08 -1.88,-1.47 -1.88,-1.47 -5.37,-3.49 -0.67,-0.87 -3.15,-2.28 -4.22,-2.55 -1.01,-1.27 -1.62,-1.54 -2.35,-2.34 -2.62,-0.94 -3.03,-3.83 -3.03,-6.04 1.15,-1.88 1.69,-2.08 2.09,-2.82 -1.68,-2.35 -2.09,-3.49 -5.17,-2.82 -3.82,-0.26 -7.99,0.6 -11.68,1.01 -0.13,1.34 -0.33,1.47 -0.2,2.68 0.94,0.34 1.68,0.6 2.35,1.28 0.94,0 2.22,1.41 2.89,2.01 3.29,1.88 7.71,5.23 9.59,8.66 0.13,0.06 0.33,0.13 0.54,0.2 0,0.26 0.07,0.6 0.13,0.94 1.81,0.87 5.5,5.5 5.84,7.58 0.2,0.07 0.47,0.13 0.74,0.2 0.06,0.47 0.13,1.01 0.27,1.54 0.2,0 0.4,0 0.6,0.07 0.34,1.14 1.54,4.43 2.48,4.7 0.07,0.87 0.14,1.81 0.2,2.75 -0.2,0.07 -0.4,0.13 -0.6,0.26 0.14,0.21 0.27,0.41 0.4,0.68 -0.54,1.14 -0.54,1.14 -1,1.47 0.06,0.14 0.13,0.27 0.26,0.47 -1.87,3.56 -3.21,6.44 -7.71,6.84 -0.94,0.68 -5.57,0.81 -6.04,-0.2 -1.01,-0.06 -3.42,-0.2 -3.76,-1.27 -3.49,-1.28 -7.24,-3.29 -10.06,-5.63 -3.69,-1.21 -6.31,-4.17 -10.2,-4.91 -0.14,0.21 -0.27,0.48 -0.34,0.74 -1.14,0.88 -1.07,1.89 -2.14,2.82 -1.08,4.1 -2.82,8.12 -3.83,12.34 -0.4,0.41 -0.67,1.35 -1.74,2.76 -0.41,2.42 3.49,9.86 5.1,11.47 2.21,0.07 5.16,0.47 6.98,1.82 2.27,0.33 4.63,1.27 6.3,2.95 0.2,-0.07 0.41,-0.07 0.67,-0.07l0 1.21c0.14,-0.2 0.34,-0.34 0.54,-0.47 0.4,0.73 0.67,1.74 1.48,2.14 -0.27,5.17 -1.41,7.39 -4.77,11.28 -1.14,2.88 -4.22,0.33 -6.3,1.74 -3.89,-1.01 -7.85,-2.82 -10.07,-6.44l-0.4 0c-0.87,-1.01 -1.68,-1.95 -2.49,-2.88l-0.53 0c-2.82,3.08 1.88,6.3 1.88,9.39 0.87,0.4 1.2,0.67 1.34,1.74 0.54,0.21 0.54,0.21 1.81,1.75 1.75,0.74 2.55,1.54 4.77,2.08 2.54,1.74 5.9,0.87 8.32,2.34 0.13,-0.13 0.26,-0.26 0.47,-0.33 2.74,0.87 9.19,-2.89 10.13,-5.3 4.83,-3.42 4.69,-12.48 2.01,-17.18 0.07,-0.26 0.13,-0.47 0.27,-0.67 -0.27,-0.33 -0.27,-0.33 -1.14,-0.67 -1.01,-1.47 -3.83,-6.04 -5.57,-6.04 -0.13,-0.27 -0.2,-0.53 -0.27,-0.8l-0.54 0c-0.26,-0.41 -0.47,-0.81 -0.67,-1.15 -1.07,0 -2.88,-0.66 -3.29,-1.54 -0.26,-0.06 -0.46,-0.13 -0.67,-0.13 -0.06,-0.27 -0.13,-0.54 -0.2,-0.74 -0.27,0 -0.53,0 -0.81,0.07 -0.13,-0.27 -0.26,-0.54 -0.33,-0.74 -0.87,-0.13 -1.61,-0.81 -2.42,-0.81 -1.54,-2.08 0.34,-7.84 1.08,-9.99 0.4,0.06 0.81,0.13 1.27,0.27 0.81,1.34 2.55,1.27 3.69,2.41 2.62,0.87 4.97,3.02 7.65,3.56 0,0.2 0,0.4 0.07,0.67 0.81,0.13 1.75,-0.07 2.01,0.87 0.34,-0.07 0.68,-0.13 1.08,-0.13 4.02,0.87 7.58,1.4 11.74,1.54 1.88,-2.82 6.31,-3.76 8.12,-6.78 2.68,-1 4.23,-4.36 7.11,-5.5 0.27,-1.27 2.35,-2.35 3.35,-3.35 0.74,-3.16 6.31,-4.43 7.32,-7.45 0.33,-0.27 0.67,-0.54 1.01,-0.74 -0.21,-0.74 7.44,-8.59 8.32,-10.33 1.14,-1.35 2.48,-2.28 3.08,-3.96 1.14,-0.81 1.08,-1.28 1.68,-2.42 1.14,-0.27 3.89,-5.43 4.29,-6.7 1.68,-0.75 1.08,-3.03 2.49,-3.96 1,-2.55 2.61,-4.57 3.35,-7.25 1.68,-2.21 1.68,-6.38 3.76,-8.45z"/>
  <path class="fil3" d="M193.6 381.71c-3.08,-3.09 -4.69,-2.22 -7.91,-0.34 -0.07,0.6 -0.14,1.01 -0.61,1.48 0,2.61 1.08,3.75 2.62,5.63 1.27,-0.07 2.55,-0.13 3.82,-0.13 0.88,-0.74 3.36,-3.83 2.29,-4.9 -0.07,-0.6 -0.14,-1.21 -0.21,-1.74z"/>
  <path class="fil3" d="M259.76 377.48c0,0.2 0,0.4 0.07,0.67 -1.48,1.27 -0.2,4.23 1.47,4.76l0 0.47c0.27,0.07 0.54,0.13 0.88,0.21 3.55,-0.34 3.89,-2.15 3.89,-5.64 -1.88,-2.35 -3.89,-2.08 -6.31,-0.47z"/>
  <polygon class="fil3" points="223.46,380.7 223.73,380.7 223.73,380.43 223.46,380.43 "/>
  <path class="fil3" d="M172.74 372.58c-0.13,-0.2 -0.27,-0.4 -0.34,-0.54 -0.87,-0.2 -1.68,-0.33 -2.48,-0.46 -1.88,-1.15 -9.26,-3.16 -11.47,-2.62 -0.61,-0.41 -1.21,-0.74 -1.75,-1.07 -2.35,-0.34 -6.57,-5.91 -8.18,-2.69 -0.27,0 -0.54,0.07 -0.74,0.14 0,3.49 6.91,6.24 9.66,6.9 1.07,1.62 7.25,0.41 9.33,2.49l1.21 0c0.13,0.2 0.26,0.4 0.4,0.67 1.67,0.4 4.96,1.21 5.9,2.61 1.21,-0.2 1.21,-0.2 1.68,-0.06 1.47,-0.74 2.28,-2.55 1.54,-4.09 -1.61,-0.61 -2.95,-1.28 -4.76,-1.28z"/>
  <polygon class="fil3" points="223.46,377.75 223.73,377.75 223.73,377.55 223.46,377.55 "/>
  <path class="fil3" d="M250.17 357.35l-0.54 0c-0.27,-0.33 -0.47,-0.67 -0.67,-1.01 -0.2,0 -0.41,0.07 -0.61,0.14 -0.06,-0.27 -0.13,-0.54 -0.2,-0.74 -1.67,-0.54 -1.41,-1.21 -2.21,-2.48 -0.47,-0.07 -0.94,-0.14 -1.41,-0.14 -0.54,-1.68 -3.83,-2.61 -4.63,-4.29 -0.2,-0.14 -0.4,-0.2 -0.54,-0.27 -1.21,1.61 -2.68,2.88 -4.36,3.82 -0.06,0.27 -0.13,0.54 -0.13,0.88 -2.89,2.07 -4.97,4.96 -7.79,7.11 -1.2,0.07 -4.49,-0.67 -4.96,-0.2 -1.21,-0.2 -3.29,0.07 -4.23,-0.47 -4.16,0.67 -8.92,-1.34 -12.88,-0.4 -0.27,-0.21 -0.27,-0.21 -5.17,-0.48 -0.2,0.14 -0.33,0.34 -0.47,0.54 1.35,1.48 2.75,3.36 4.3,4.5 0.6,1.28 1.87,1.74 2.55,3.08 -0.54,-0.13 -1.08,-0.2 -1.62,-0.26 -0.06,0.06 -0.13,0.13 -0.19,0.26 -3.22,-0.4 -8.06,0.67 -10.81,-1.14 -2.35,-0.33 -4.69,-1.07 -6.97,-1.74 0.06,-0.74 0.13,-1.48 0.26,-2.21 0.67,-0.41 2.69,-6.45 2.69,-7.52 1.81,-2.89 1.61,-7.32 3.62,-10 -0.74,-2.35 4.23,-11.4 5.3,-15.09 1.41,-0.94 1.48,-4.36 3.15,-5.77 2.35,0.73 4.5,1.88 6.85,2.21 -0.34,-1.48 -1.55,-2.62 -1.41,-4.43 -1.21,-2.01 -0.94,-5.7 -2.49,-7.24 0,-1.28 -0.86,-2.96 -1.14,-4.3 -0.2,0 -0.33,0 -0.46,0.07 -0.88,1.27 -1.21,2.48 -2.42,3.69 -0.07,0.54 0,1.07 -0.54,1.34 0.27,0.54 -1.4,1.81 -1.4,2.89 -2.15,2.14 -3.29,5.77 -5.24,8.31 -0.4,1.01 -0.87,2.89 -1.81,3.36 -0.2,0.94 -0.67,1.34 -0.94,2.28 -1.68,1.68 -2.14,4.43 -3.76,6.17 -0.46,2.55 -3.62,5.17 -4.02,7.93 -2.68,2 -3.62,6.77 -5.84,9.45 0.27,0.54 -1.27,1.54 -1.07,2.55 -0.94,1.95 -4.77,0.41 -6.38,0 -0.74,-1.14 -2.88,-0.2 -3.55,-1.54 -3.63,-1.95 -6.72,-3.83 -9.6,-7.18 -0.27,-0.07 -0.47,-0.13 -0.67,-0.2l0 -0.34 0.87 0c0,-0.34 0,-0.67 0.07,-0.94 0.47,-0.33 0.47,-0.33 1.27,-0.4 0.68,-2.89 5.04,-3.42 5.71,-6.31 0.6,-0.53 1.21,-1.34 2.08,-1.34 0.27,-1.54 2.22,-2.41 3.42,-3.49 1.81,-3.69 3.83,-0.87 6.11,0.07 1.67,-1.68 -0.88,-12.75 -1.01,-16.24 -0.61,0.67 -1.61,2.02 -2.55,2.02 -1.61,2.34 -3.49,4.09 -5.84,5.7 0,0.74 -0.54,1.21 -1,1.74 -2.22,1.08 -3.29,4.37 -5.71,5.17 -1.34,2.69 -4.7,4.36 -6.37,6.91 -2.02,0.81 -2.28,3.02 -4.23,3.69 0,0.07 0,0.14 0.07,0.27 -0.4,0.07 -0.74,-0.34 -1.41,-0.6 -0.13,-0.41 -0.27,-0.74 -0.4,-1.08l-0.61 0c-1.34,-1.88 -3.55,-3.42 -5.23,-5.1 1.48,-0.74 3.69,-3.95 5.3,-3.95 0.07,-0.27 0.14,-0.54 0.2,-0.81 3.36,-2.01 5.57,-5.84 9.2,-7.25 0.33,-1.74 2.27,-2.88 3.95,-3.28 1.01,1.2 3.76,2.54 5.17,3.35 0.07,-0.07 0.2,-0.13 0.33,-0.2 -0.2,-0.87 0.07,-1.61 -0.2,-2.48 0.14,-1.55 1.28,-13.56 0.48,-14.36 -1.28,1.07 -2.29,2.21 -3.9,2.68 -0.27,0.94 -1.21,1.48 -2.01,2.08 -0.13,-0.13 -0.27,-0.2 -0.34,-0.27 -1.34,1.55 -3.42,3.02 -5.23,4.03 -2.01,2.68 -8.05,4.83 -8.99,7.65 -1.07,0.54 -2.15,1.07 -3.22,1.68 -0.27,0.87 -1.75,1.67 -2.42,2.61 -1.27,0.27 -2.15,1.41 -3.08,2.28 -1.01,-0.6 -1.48,-1.74 -2.55,-2.34 0,-0.21 0.06,-0.41 0.13,-0.54 -1.48,-0.54 -2.08,-1.68 -3.35,-2.08 -0.34,-0.81 -0.48,-1.01 -1.08,-1.61 1.28,-1.68 4.3,-2.15 6.04,-3.63 0.54,0.14 1.81,-1.07 2.89,-1.07 0.07,-0.27 0.13,-0.54 0.27,-0.74l0.8 0c0.13,-0.26 0.27,-0.47 0.47,-0.67 3.15,-0.94 6.37,-3.15 9.26,-4.83 1.61,0.27 2.68,2.35 4.56,2.35 0.67,-2.22 0.88,-4.56 1.88,-6.64 0.34,-2.22 1.41,-6.71 3.15,-8.06 0,-1.94 1.28,-3.35 1.81,-5.23 0.28,-0.13 0.28,-0.13 1.42,0.34 -0.07,0.2 -0.07,0.4 -0.07,0.67l0.6 0c1.21,2.01 4.9,3.28 6.78,4.9 1.34,0.13 2.21,0.6 3.22,1.41 0.2,-0.14 0.4,-0.2 0.67,-0.27 0.33,0.33 0.33,0.33 0.47,1 0.34,-0.07 0.67,-0.13 1.07,-0.13 0,0.13 0.07,0.27 0.14,0.47 2.21,-0.47 4.09,-0.94 5.5,-2.89 3.96,-1.41 2.35,-9.86 0.53,-12.07 -5.77,0.27 -8.65,2.21 -11,7.71 -1.27,0.4 -2.82,-1.14 -3.62,-1.88 -3.36,-1.34 -5.91,-3.82 -5.5,-7.51 1.81,-1.34 2.95,-4.56 4.9,-6.17 -0.2,-2.95 -0.34,-5.71 -0.28,-8.73l-3.01 0c-0.81,1.08 0.06,2.02 0.2,3.36 -0.27,2.21 -0.81,8.32 -3.96,8.92 -0.81,-1 -1.34,-2.01 -2.35,-3.02 0.14,-0.33 0.27,-0.67 0.47,-0.94 -0.13,-0.27 -0.2,-0.53 -0.27,-0.73 0.07,-1.95 -0.4,-9.53 1.14,-10.54 0.6,-1.41 0.74,-1.74 2.08,-2.42 0.07,-1.27 0.2,-2.47 0.34,-3.68 -0.81,0.06 -1.95,0.6 -2.48,0.06 -1.28,1.55 -3.89,2.01 -5.78,3.16 -0.13,-0.07 -0.26,-0.14 -0.4,-0.2 -0.13,0.2 -0.2,0.46 -0.26,0.73 -0.28,-0.07 -0.54,-0.07 -0.81,-0.07 -0.07,0.14 -0.13,0.34 -0.2,0.54l-39 14.75 -0.08 0.73 -12.76 4c0.48,3.18 1.34,5.57 3.73,7.96 1.88,-1.34 4.43,-2.14 6.58,-2.95l37.77 -18.52c1.48,-0.53 1.48,-0.53 2.35,-0.46 0.4,1.54 0.4,1.54 2.21,5.23 0.14,0 0.27,0.07 0.47,0.13l0 0.87c1.14,0.34 2.62,4.91 3.83,6.11 0.06,0.27 0.13,0.6 0.2,0.94 2.01,1.48 2.68,5.97 4.7,6.64 0.06,0.61 0.13,1.28 0.2,1.95 -0.67,0.4 -1.35,0.8 -1.95,1.27 -0.06,0.27 -0.14,0.61 -0.14,0.94 -1.67,0 -2.14,2.62 -3.69,2.89 -0.46,1.54 -2.61,2.95 -4.09,3.42 -0.26,0.8 -4.09,3.89 -4.89,4.02 -0.07,0.21 -0.07,0.41 -0.07,0.61 -1.95,0.27 -2.69,1.47 -4.36,2.01 -0.07,0.2 -0.14,0.4 -0.14,0.67 -0.4,0 -0.73,0 -1.07,0.07 -0.2,0.67 -6.38,3.55 -7.31,3.55 -0.88,0.68 -1.48,1.08 -2.56,1.21 -4.76,2.22 -13.35,5.51 -18.78,4.9 -0.13,0.2 -0.13,0.2 -3.82,0.33 -0.27,-0.26 -7.65,-2.01 -8.26,-1.81 -0.07,-0.2 -0.13,-0.4 -0.13,-0.53 -0.34,0.07 -0.6,0.13 -0.88,0.2 -1.07,-1.07 -2.75,-1.61 -4.09,-1.88 -0.33,-1.01 -4.63,-2.75 -5.63,-3.29 -2.49,0 -3.29,-4.09 -5.5,-4.89 0,-1.15 -2.62,-5.51 -3.43,-5.24 -0.06,-0.4 -0.06,-0.73 -0.06,-1.07 -0.2,-0.07 -0.41,-0.14 -0.54,-0.2 -0.13,-0.27 -0.2,-0.47 -0.27,-0.67l-0.4 0c-0.27,-0.54 -1.48,-2.82 -1.28,-3.49 -0.26,-0.14 -0.53,-0.27 -0.74,-0.34 0,-1 -1.47,-4.69 -2.21,-5.43 -0.47,-2.69 -0.47,-2.69 -0.94,-4.09 -0.13,-4.03 -1.14,-9.87 0.74,-13.69 -0.2,-3.09 1.75,-6.78 2.75,-9.6 0.67,-0.33 1.48,-2.61 1.68,-3.35 1.41,-2.08 3.62,-4.3 4.7,-6.51 2.08,-1.01 4.02,-3.02 5.36,-4.83 0.94,-0.74 0.94,-0.74 2.08,-1.14 0,-0.21 0,-0.41 0.07,-0.61l0.47 0c0,6.85 1.61,13.49 2.28,20.4 0.67,0.67 0.94,2.08 1.07,3.02 1.23,0.84 2.27,1.06 3.65,1.07l0.19 -0.02c0.14,-0.26 0.33,-0.45 0.53,-0.65 0.51,0.07 0.94,0.2 1.31,0.38l4.14 -0.6c2.19,-0.57 6.22,-1.05 7.43,-2.26 3.49,0.6 7.51,-2.69 10.93,-2.01 0.14,-0.27 0.34,-0.47 0.54,-0.68 1.88,0.28 5.17,-1.2 7.04,-1.54 1.68,-1.27 4.23,-0.73 5.98,-1.87 0.8,0.4 1.47,-0.27 2.35,-0.61 0.13,0.07 0.27,0.13 0.47,0.27 1.54,-0.74 2.68,-1.01 4.42,-1.14 0.68,-0.67 1.88,-0.81 2.75,-0.94 0.21,0.2 0.41,0.47 0.68,0.73 -0.14,0.21 -0.2,0.41 -0.27,0.68 0.74,1.01 0.94,2.88 1.14,4.09 1.54,0.74 8.92,-7.51 8.92,-8.72 0.68,-0.34 1.28,-1.14 1.08,-1.88 -2.69,-0.27 -6.31,-0.27 -8.79,-0.94 -1.75,1.74 -6.58,0 -8.79,1.48l-1.61 0.2c-0.67,-1.21 -1.95,-1.88 -2.22,-3.29 0.41,-0.6 0.87,-1.21 1.34,-1.74 0.47,-1.41 0.88,-6.04 0,-6.92 -1.61,0 -4.09,0.41 -5.5,-0.26 -0.53,0.26 -1.01,0.2 -1.47,-0.14l0 -3.29c2.28,-2.81 2.28,-2.81 2.28,-3.21 -2.55,-1.48 -2.28,-7.52 -2.28,-10.14 -2.95,2.22 -1.75,6.78 -2.02,10.2 -2.55,3.29 -3.08,9.66 -1.67,13.55 -0.14,0.54 -0.2,1.15 -0.27,1.75 0.8,0.27 0.8,0.27 1.61,0.94 1.34,0.2 3.82,0.33 3.82,2.28 -0.47,0.2 -0.47,0.2 -1.27,1.07 -3.69,0 -9.26,1.55 -12.68,3.16 -0.61,-0.07 -1.55,-0.47 -1.88,0.2 -1.41,0.2 -2.75,0.4 -4.09,0.67 -2.22,1.47 -6.24,1.41 -8.86,1.74 -3.35,-1.2 -1.35,-4.9 -2.82,-7.11 0.07,-1.14 0.07,-1.14 -0.74,-11.54 0.41,-0.54 0.41,-1.74 -0.13,-2.28 0.2,-0.27 0.2,-2.82 0.47,-3.15 -1.01,-1.28 -0.4,-9.93 0,-10.34 -0.13,-2.28 0.13,-10.33 1.07,-11.6 0.07,-1.08 -0.07,-2.29 0.34,-3.16l0.67 0c0.07,0.2 0.13,0.4 0.27,0.61 2.68,0.26 5.77,3.42 7.98,3.42 0.13,0.2 0.27,0.47 0.41,0.73 0.13,-0.13 0.26,-0.19 0.4,-0.26 3.69,0.87 7.64,5.03 11.53,5.64 0.21,0.2 0.41,0.4 0.61,0.66 1.07,-1.07 0.2,-3.95 0.87,-5.36 -0.13,-5.71 0.6,-11.35 0.6,-16.98 0.34,-0.67 0.07,-1.34 0,-2.08 0.61,-1.41 1.15,-8.32 0.47,-9.66 -0.47,0.47 -1.47,0.07 -2.14,0.07 -1.95,1.07 -3.89,2.14 -5.77,3.28 -3.76,0.34 -8.59,4.97 -12.28,4.16 0.07,-1.07 -0.07,-1.54 0.53,-2.41 -0.33,-0.74 -0.13,-1.48 -0.06,-2.22 0.14,-0.06 0.27,-0.13 0.47,-0.2 0.27,-0.93 0.27,-0.93 0.2,-1.74 1.28,-2.22 1.14,-5.91 2.95,-7.71 -0.13,-0.21 -0.2,-0.41 -0.27,-0.61 0.94,-1.74 0.94,-1.74 1.82,-4.03 1.87,0.47 3.76,0.61 5.16,2.02 0.2,-0.07 0.47,-0.14 0.74,-0.21 3.75,1.08 7.85,2.96 11.88,3.63 0.53,0.54 4.29,1.81 5.16,1.81 2.62,1.48 8.19,1.28 10.2,3.28 1.01,0 1.01,0.08 1.75,0.54 2.88,0.47 5.77,1.08 8.52,2.09 0.6,7.04 0.6,7.04 0.87,7.31 3.89,-2.22 8.72,-1.81 12.68,-3.62 1.54,-0.28 2.01,-0.68 2.48,-0.68 0.14,-1.07 -1.27,-1.34 -2.01,-1.54l0 -0.61c-0.94,-0.13 -3.42,-1.2 -3.62,-1.87 -1.01,0.2 -2.08,-0.27 -2.62,-1.14 -0.34,-0.07 -0.6,-0.14 -0.87,-0.14 -0.07,-0.2 -0.13,-0.4 -0.2,-0.54 -1.01,-0.33 -2.28,-0.46 -2.89,-1.4 -0.47,-0.07 -0.94,-0.07 -1.41,-0.07 -0.06,-0.27 -0.13,-0.54 -0.2,-0.74 -2.28,0 -3.96,-2.01 -6.37,-2.28 -1.14,-0.6 -4.7,-2.82 -5.84,-2.82 -0.13,-0.2 -0.27,-0.4 -0.4,-0.53 -0.14,0.06 -0.27,0.13 -0.34,0.26 -1.74,-0.73 -1.74,-0.73 -2.55,-1.4 -1.54,0.13 -7.45,-2.75 -8.18,-3.49 -3.09,0 -5.71,-3.16 -8.73,-3.16 -0.07,-0.2 -0.07,-0.4 -0.07,-0.53 -1.4,-0.34 -2.14,-0.34 -2.88,-1.61 -0.2,0.13 -0.4,0.26 -0.53,0.4 -0.14,-0.2 -0.28,-0.34 -0.34,-0.47 -0.54,-0.07 -1.01,-0.13 -1.48,-0.2 -0.87,-1.14 -2.15,-0.81 -2.75,-2.08 -0.26,0 -0.54,0 -0.8,0.06 -0.34,-4.69 3.69,-7.78 4.63,-12.01 1.47,0.48 7.38,-1.87 9.12,-1.94 0.07,-0.2 0.14,-0.34 0.2,-0.47 1.07,0.13 2.82,-0.67 3.96,-0.94 0.4,-2.69 0.54,-6.11 0.54,-8.79 1.07,-1.81 -0.94,-5.97 2.41,-5.97 0,-0.27 0,-0.47 0.07,-0.67 1.95,-1.61 3.76,-5.37 6.24,-6.17 2.62,-2.62 2.01,-2.89 5.24,-1.42 0,0.28 0.06,0.54 0.13,0.88 0.87,0.26 1.14,1.14 2.08,1.41 0.87,2.75 5.3,4.69 6.44,7.38 1.48,0.74 2.42,2.55 3.89,3.55 0.54,2.82 3.96,4.23 4.63,6.91 1.28,1.82 3.22,4.37 3.89,6.44 0.27,0 0.54,0 0.88,0.07 0.4,1.21 1.2,3.49 2.41,4.03 -0.07,0.2 -0.07,0.4 -0.07,0.6 0.14,0.07 0.34,0.13 0.54,0.27 0.2,1.41 0.2,1.41 0.47,1.75 -1.07,0.4 -3.83,1.54 -5.03,1.54 0,2.15 -1.41,4.29 -1.55,6.57 -0.94,3.63 -1.07,5.64 -0.53,9.33l0.47 0c0.13,-0.74 0.13,-0.74 0.74,-1.34 0,-1.28 2.75,-3.96 3.82,-4.77 -0.07,-0.13 -0.07,-0.26 -0.07,-0.4 1.61,-0.8 2.62,-2.28 4.56,-3.02 1.75,0.34 3.56,0.67 5.37,1.08 0.07,0.13 0.14,0.26 0.2,0.47 1.21,0.4 2.89,0.8 3.89,1.61 0.07,-0.2 0.2,-0.41 0.34,-0.54 0.87,0.07 0.87,0.07 1.95,0.47 -1.82,-5.91 -5.04,-8.19 -10.33,-10.47 -1.08,-2.01 -1.62,-5.36 -3.23,-6.77 -1.27,-4.37 -3.82,-7.99 -6.1,-11.95 -0.27,-0.26 -0.54,-0.54 -0.81,-0.8 -1.07,-2.22 -4.02,-5.1 -4.56,-7.25 -0.2,-0.07 -0.34,-0.13 -0.47,-0.2 -0.2,-1.08 -0.6,-1.34 -1.41,-2.02 -0.94,-2.14 -3.69,-3.95 -4.16,-6.3 -2.62,-2.62 -5.83,-6.91 -7.11,-10.27 -0.27,-0.06 -0.54,-0.13 -0.74,-0.2 -0.2,-0.47 -0.4,-0.94 -0.6,-1.41 -0.54,-0.13 -2.48,1.55 -3.42,1.68 -0.07,0.27 -0.14,0.54 -0.2,0.81 -0.14,-0.14 -0.27,-0.21 -0.34,-0.27 -0.34,0.33 -0.34,0.33 -1.41,0.47 -1.07,1.41 -2.15,2.55 -3.76,3.35 -0.4,0.61 -0.74,1.55 -1.54,1.55 -1.34,1.47 -3.09,2.21 -4.02,3.89 -2.29,1.34 -3.76,3.21 -5.31,5.5 -0.6,0.34 -8.25,1.28 -8.65,0.87 -0.34,0.27 -3.69,0.27 -5.78,0.54 -0.13,2.75 -0.2,5.5 -0.26,8.32 0.6,0.8 0.33,6.1 -0.2,7.18 0.13,0.13 0.33,0.27 0.53,0.4 -0.13,0.27 -0.2,0.54 -0.27,0.8 0.07,0.07 0.14,0.21 0.27,0.34 -0.2,0.4 -0.33,0.87 -0.47,1.34 -0.2,0 -0.33,0.07 -0.46,0.14 -0.14,0.46 -0.27,0.94 -0.41,1.41 -0.2,0 -0.4,0 -0.6,0.06 -0.13,1.01 -0.61,2.08 -1.54,2.68 0.2,0.48 -1.48,2.15 -1.68,3.09 -0.47,0.14 -0.74,0.94 -1.14,1.14l0 0.67c-3.29,4.9 -4.97,10.54 -7.45,15.84 -0.14,0.87 -0.27,2.88 -1.08,3.29 0,2.07 -1.47,4.63 -1.8,6.84 -1.55,1.55 -0.48,5.3 -2.22,7.04 -0.13,1.95 -0.6,3.23 -1.14,5.1 -0.81,7.25 -2.42,13.63 -2.42,20.67 -0.2,0.07 -0.33,0.13 -0.46,0.2 0.33,1.21 0.2,3.49 0,4.76 -0.07,5.84 -0.07,11.88 0.53,17.79 -0.67,0.26 -0.67,0.26 -2.48,2.01 -0.14,-0.07 -0.27,-0.07 -0.34,-0.07 -1,1.27 -4.29,4.23 -5.64,4.23 -0.6,1.21 -2.88,2.81 -4.15,3.35 -0.14,0.47 -0.27,0.94 -0.4,1.48 -0.2,0 -0.41,0 -0.61,0.07 0.47,2.41 -4.29,4.89 -4.29,6.77 -0.81,1.35 -1.62,2.69 -2.42,4.03 -0.14,1.81 -0.27,4.7 -1.48,5.9 0.2,1.28 -0.53,2.69 0,3.76 -0.33,0.67 -0.13,1.01 0,1.68 -0.73,1.61 -0.53,5.9 0.28,7.58 -0.21,0.13 -0.41,0.27 -0.61,0.4 0.94,0.61 0.61,1.35 0.53,2.22 0.94,1.88 1.22,4.63 1.22,6.71 0.06,0 0.2,0 0.33,0.06 0.07,0.6 0.13,1.21 0.27,1.88 0.13,0.07 0.33,0.14 0.54,0.2 0.06,0.81 0.2,1.61 0.33,2.42 0.2,0.13 0.4,0.27 0.67,0.47 0.13,1.34 1.21,2.68 0.94,3.89 0.4,0.33 0.4,0.33 2.22,3.69 -0.14,0.07 -0.21,0.2 -0.27,0.34 2.41,2.68 3.82,5.97 6.84,8.25 0,0.13 0.06,0.27 0.13,0.47 2.02,2.35 5.3,3.96 7.86,5.57 2.95,0.8 6.17,2.35 8.85,3.82 0.07,-0.13 0.13,-0.2 0.27,-0.27 2.75,0.27 5.16,1.41 7.99,1.14 3.01,0.81 6.23,-0.6 9.25,-0.33 2.82,-1.48 4.9,-1.34 5.84,2.14 1.21,0.74 4.36,3.63 4.36,4.84 1.01,0.2 1.88,0.8 1.88,1.87 0.74,0.34 1.27,0.54 1.47,1.28 1.01,0 4.37,3.22 4.37,4.29 0.27,0.07 0.6,0.14 0.94,0.27 1.07,1.48 3.55,2.29 4.22,4.03 2.42,0.94 4.23,4.16 6.98,4.9 0.2,0.94 0.47,1 1.54,1.14 0.94,1.47 2.62,2.55 4.3,2.88 1.74,1.95 5.03,2.55 6.51,4.5 0.13,-0.07 0.26,-0.07 0.4,-0.07 0.06,0.2 0.14,0.4 0.27,0.61 1.41,-0.34 2.21,0.6 3.08,1.47 0.2,-0.07 0.41,-0.07 0.68,-0.07 0.6,0.94 8.45,3.89 10.06,4.5 0,0.13 0.07,0.27 0.13,0.47 0.34,-0.07 0.68,-0.13 1.08,-0.2 2.08,1.34 6.44,1.41 7.91,2.88 3.09,0 6.38,2.22 9.47,2.22 1.2,0.47 3.62,0.4 4.36,1.14 1.34,0 2.62,0.13 4.02,0.94 0.14,-0.14 0.34,-0.27 0.54,-0.34 0.94,0.61 12.14,2.21 12.55,1.81 0.93,0.74 3.35,-0.13 4.02,1.08 0.27,-0.07 0.61,-0.14 0.94,-0.2 -0.67,-1.62 -1.41,-2.69 -2.75,-3.96 -0.74,-2.22 -3.62,-3.36 -3.62,-5.91 0.4,-0.13 1.61,0.13 1.74,0.34 0.94,-0.54 8.46,0.13 9.6,0.87 2.41,0.14 4.83,0.27 7.24,0.4 3.16,1.68 5.64,4.83 8.79,6.58 0.47,-0.88 1.34,-1.95 2.48,-1.95 0.34,-1.54 2.69,-2.55 2.69,-3.76 0.94,0.27 2.15,-2.21 3.42,-2.61 0.07,-0.27 0.13,-0.54 0.2,-0.74 2.15,-0.87 2.55,-3.22 4.7,-3.76 0.27,-0.74 0.27,-0.74 0.94,-1.61 -0.2,-0.8 -0.47,-0.94 -0.54,-1.61 -1.21,-0.13 -2.68,-1.07 -3.08,-2.28zm-70.52 -63.67l0 0c0.13,2.88 1.47,5.5 -1.21,7.51 -0.87,0.33 -1.74,0.67 -2.62,1.01 -0.46,-0.88 -1.34,-1.21 -1.87,-1.95 -0.74,-4.22 0.67,-7.45 5.7,-6.57zm-69.65 -88.17l0 0c0.07,-0.13 0.14,-0.27 0.2,-0.4 1.95,0 3.36,-1.95 5.31,-1.68 0,2.28 0,4.57 0.06,6.85 -0.94,1.41 1,1.41 -1.2,1.74l0 -0.4c-0.48,-0.14 -0.95,-0.2 -1.35,-0.27l0 -0.4c-0.8,-0.47 -1,-0.74 -2.01,-0.74 -1.21,-1.81 -4.77,-1.14 -5.17,-3.56 1.35,0.67 2.75,-0.67 4.16,-1.14zm9.06 -58.44l0 0c0.67,0.2 1.68,0 2.15,-0.47 4.89,-0.87 4.89,-0.87 6.77,-1 -0.13,2.01 -0.13,2.01 -0.6,3.28 0.06,0.07 0.14,0.2 0.27,0.34 -0.81,1.27 -0.47,2.88 -0.47,4.29 -1.68,1.68 -5.84,0.47 -8.39,1.28 -0.2,-0.14 -0.4,-0.27 -0.53,-0.4 -0.07,-2.09 -0.34,-5.78 0.8,-7.32zm-13.89 59.58l0 0 -0.67 0c-0.07,-0.13 -0.14,-0.26 -0.2,-0.34 -0.34,-0.06 -0.67,-0.06 -0.94,-0.06 -0.07,-0.47 -0.07,-0.87 -0.07,-1.28 0.61,0.61 1.61,0.88 1.88,1.68zm-2.88 -1.54l0 0c0.06,0 0.2,0.07 0.33,0.13 -0.13,0.07 -0.27,0.21 -0.33,0.34l0 -0.47zm-0.68 -0.87l0 0 0.41 0 0 0.4 -0.41 0 0 -0.4zm110.04 163.44l0 0 -0.47 0 0 -0.4 0.47 0 0 0.4zm26.91 -0.2l0 0c-0.07,0.27 -0.07,0.54 -0.07,0.87l-0.47 0c-1.47,-1.94 -4.09,-3.62 -6.04,-5.03l0 -0.47c1.48,-1.27 2.89,-4.03 4.63,-4.36 0.07,-0.4 0.27,-1.61 1.01,-1.41 0.74,2.35 4.96,3.29 5.63,5.97 -1.61,0.67 -2.75,3.63 -4.69,4.43z"/>
  <polygon class="fil3" points="294.38,375.73 294.38,376 294.58,376 294.58,375.73 "/>
  <path class="fil3" d="M312.7 373.72c0.81,-0.06 1.61,-0.06 2.48,-0.06 3.29,-2.62 1.95,-3.16 0.67,-6.65 -4.29,-1.67 -5.9,3.96 -3.15,6.71z"/>
  <polygon class="fil3" points="211.18,367.68 211.65,367.68 211.65,367.28 211.18,367.28 "/>
  <path class="fil3" d="M322.89 359.03c-3.55,1.14 -3.62,3.15 -2.54,6.44 0.26,0 0.54,0.07 0.8,0.13 -0.06,0.14 -0.13,0.34 -0.13,0.54 0.27,-0.2 0.6,-0.4 0.94,-0.6 0.27,0.13 0.6,0.26 0.93,0.46 0.41,-0.4 0.54,-0.46 1.28,-0.46 0.94,-1.14 0.94,-1.14 1.81,-2.69 -0.4,-2.01 -1,-3.15 -3.09,-3.82z"/>
  <polygon class="fil3" points="224.13,355.61 224.13,355.87 224.4,355.87 224.4,355.61 "/>
  <polygon class="fil3" points="291.5,347.55 291.5,347.35 291.23,347.35 291.23,347.55 "/>
  <path class="fil3" d="M210.24 328.63c-0.2,-0.06 -0.33,-0.13 -0.47,-0.2 -3.55,1.88 -6.57,4.43 -6.57,8.99 -0.2,0.2 -0.34,0.4 -0.47,0.6l0.33 0c0.54,0.88 0.74,2.29 1.21,3.29 0.2,0 0.41,0 0.61,0.07 0.87,1.48 2.28,2.08 3.62,3.08 5.57,-0.4 7.11,-1.6 10.33,-5.56 0.47,-3.62 0.47,-3.62 0.74,-4.16 -0.67,-1.21 -1.27,-5.1 -3.16,-5.1 -2.21,-1.48 -3.42,-1.88 -6.17,-1.01zm4.83 10.07l0 0c-0.8,0.8 -2.28,1.54 -3.35,2.08 -0.14,-0.14 -0.27,-0.2 -0.34,-0.27 -0.26,0.07 -0.46,0.2 -0.66,0.33 -3.43,-0.93 -3.49,-1.61 -3.7,-5.16 1.01,-3.36 5.37,-5.5 7.85,-2.42 0.34,0.14 0.68,0.27 1.01,0.47 0,1.68 -0.27,3.29 -0.81,4.97z"/>
  <path class="fil3" d="M251.84 328.43c-1.47,0.41 -5.9,1.55 -7.38,1.07 -1.74,1.75 -6.91,-0.26 -8.45,2.02 -1.01,0.13 -5.91,0.8 -6.71,0 -1.01,-0.07 -3.96,0 -4.36,-0.87 -1.01,0.74 -1.35,2.01 -2.08,3.08 0.13,0.14 0.27,0.34 0.47,0.54 0.13,-0.14 0.26,-0.2 0.46,-0.27 0.88,0.54 2.09,0.67 3.29,1.28 0.88,0.2 2.55,0.13 3.09,0.67 2.35,-0.07 7.85,0.13 9.39,-1.88 3.76,-1.21 9.6,-0.74 13.76,-0.67 1.4,-0.81 1.61,-2.49 1.34,-4.03 -0.8,-0.8 -1.88,-0.33 -2.82,-0.94z"/>
  <path class="fil3" d="M286.33 312.8c0.54,-1.27 1.14,-1.88 2.48,-1.88 0.07,-0.67 0.07,-0.67 0.94,-2.68l0.81 0c0,-0.27 0.06,-0.54 0.13,-0.74 2.42,-1.81 1.68,-5.57 5.03,-6.98 0.47,-2.08 3.89,-4.56 5.44,-6.04 -0.07,-0.94 -0.14,-1.81 -0.2,-2.68 -0.67,-0.47 -1.35,-0.94 -1.95,-1.41 -0.67,0.67 -1.14,1.34 -2.21,1.34 -0.74,1.01 -2.02,2.35 -2.02,3.69 -0.33,0 -0.6,0 -0.87,0.07 -0.06,0.33 -0.06,0.67 -0.06,1 -0.94,0.54 -0.94,0.61 -1.35,1.62 -1.61,0.53 -1.67,3.55 -3.35,4.09 0,1.94 -3.09,5.43 -4.16,6.77 -2.75,1.14 -4.7,2.62 -4.7,5.71l0.47 0 0 0.67c1.95,-0.27 3.69,-2.55 5.57,-2.55z"/>
  <path class="fil3" d="M411.93 252.08c-0.13,-0.2 -0.2,-0.4 -0.27,-0.61 0.21,-2.01 -0.4,-11.07 -0.66,-11.27 -0.94,-4.09 -1.35,-4.83 -1.35,-5.7 -1.47,-3.63 -3.89,-6.78 -5.57,-10.2 -1.54,-1.74 -4.69,-3.49 -5.37,-5.64 -2.35,-1.14 -4.16,-2.95 -6.1,-4.69 -1.34,0 -2.75,-0.88 -3.76,-1.62 -0.8,0 -4.22,-0.26 -4.49,-0.66 -2.02,-0.21 -11.68,-2.35 -13.76,-0.81 -0.13,-0.14 -0.27,-0.2 -0.33,-0.27 -5.71,0.54 -11.75,3.16 -16.71,5.77 -0.07,1.08 0,1.68 0.94,1.95 0.2,1.2 0.6,2.41 2.01,2.75 -0.06,0.27 -0.06,0.53 -0.06,0.87 2.01,0.81 3.35,2.15 4.69,3.82 1.41,0.54 1.95,1.55 3.42,1.95 0.21,0.81 1.28,1.54 2.15,1.54 0.07,0.2 0.13,0.41 0.27,0.68 3.29,1.61 6.44,4.83 10,5.23 -0.07,-0.2 -0.14,-0.4 -0.2,-0.54 0,-5.9 -0.21,-11.94 -0.48,-17.85 0.54,0.07 0.54,0.07 1.21,-0.4 3.02,0.54 7.38,-0.67 9.8,1.75 0.2,-0.07 0.4,-0.14 0.67,-0.21 2.28,1.41 5.03,2.15 6.51,4.43 1.94,0.94 4.36,3.96 5.16,5.91 0.07,-0.07 0.14,-0.07 0.27,-0.07 0.47,1.41 2.02,2.89 2.02,4.63 0.2,0 0.4,0 0.6,0.07 0.07,0.54 0.2,1.07 0.34,1.61 1.4,1.74 1.4,4.36 2.55,6.37 0.66,3.35 3.75,14.29 2.41,15.63 0.74,2.02 -0.2,11.88 -1.81,13.49 0.67,1.75 -1.01,3.49 -1.21,5.3 -0.2,0.07 -0.4,0.13 -0.54,0.2 0,4.7 -6.1,10.74 -8.12,14.76 -0.4,0.2 -0.8,0.41 -1.14,0.61 -0.27,1.07 -1.81,2.21 -2.55,3.42 -1.07,1.01 -2.68,1.75 -3.35,3.09 -0.27,-0.07 -0.47,-0.14 -0.67,-0.2 -0.4,0.4 -0.74,0.8 -1.07,1.27l-0.47 0c0.26,0.94 -1.41,1.54 -2.08,1.81 -0.07,0.14 -0.14,0.33 -0.14,0.54 -0.2,0 -0.4,0 -0.6,0.07 -0.27,0.87 -4.97,3.69 -6.18,3.69 -0.06,0.2 -0.13,0.4 -0.2,0.66 -1,0.28 -1.74,0.88 -2.81,1.01 -1.82,1.82 -7.12,2.22 -9.53,2.62 0,1.48 -0.2,2.89 1.27,3.62 1.48,-0.93 3.83,-1.14 5.57,-2.14 1.68,0 7.12,-2.28 7.65,-3.42 4.77,-1.01 8.32,-6.24 12.61,-8.26 0.88,-1.75 2.82,-2.75 3.89,-4.43l0.48 0c0.53,-1.41 2.14,-2.88 3.42,-3.82 1.41,-2.82 4.43,-5.23 5.3,-8.32 0.2,-0.07 0.4,-0.14 0.67,-0.14 0,-0.33 0,-0.66 0.07,-1 1.27,-0.61 2.34,-4.1 2.88,-5.51 0.6,-4.22 1.48,-8.32 2.22,-12.54 0.06,-0.81 -0.14,-6.17 0.53,-6.85 -0.13,-0.06 -0.27,-0.13 -0.33,-0.2 0,-1.27 -0.2,-2.68 0.33,-3.75zm-43.54 -29.99l0 0c-0.47,0.06 -0.94,0.13 -1.34,0.26 -0.54,-2.21 -3.76,-2.28 -4.23,-3.82 1.88,-0.34 3.76,-0.67 5.64,-1.01 0.13,0.87 -0.21,1.61 -0.07,4.57z"/>
  <polygon class="fil3" points="404.42,285.42 404.62,285.42 404.62,285.16 404.42,285.16 "/>
  <path class="fil3" d="M383.68 279.58c0.54,0.07 1.15,0.21 1.75,0.34 0.07,0.14 0.14,0.34 0.2,0.54 3.49,-0.54 6.78,-3.76 4.56,-7.45 -0.06,-0.27 -0.06,-0.53 -0.06,-0.81 -0.47,-0.13 -0.94,-0.2 -1.35,-0.26 -0.13,-0.27 -0.2,-0.54 -0.26,-0.81 -0.74,0.14 -1.48,-0.13 -2.01,-0.67 -4.57,2.02 -5.04,5.1 -2.83,9.12z"/>
  <path class="fil3" d="M386.57 264.15c1.01,0.07 1.01,0.07 1.55,0.47 0.4,-0.33 0.4,-0.33 1.81,-0.6 0.6,-0.54 1.2,-1.07 1.81,-1.61 1.21,-4.29 -0.47,-6.58 -4.63,-6.91 -1.54,0.73 -2.42,1.21 -3.43,2.62 0.07,0.13 0.21,0.26 0.34,0.4 -1.74,1.74 1.35,4.76 2.55,5.63z"/>
  <polygon class="fil3" points="344.9,259.46 344.9,259.66 345.17,259.66 345.17,259.46 "/>
  <path class="fil3" d="M317.73 247.05l0 1.2c-1.74,4.29 -0.13,6.78 3.22,9.53 0.07,-0.14 0.2,-0.2 0.34,-0.27 0.26,0.2 0.26,0.2 3.29,0.27 0.06,0.07 0.13,0.2 0.2,0.34 4.43,-1.21 6.37,-3.16 7.98,-7.58 -0.54,-5.24 -1.88,-6.85 -7.11,-8.26 -4.7,0.33 -5.04,2.62 -7.92,4.77zm2.82 1.87l0 0c0.13,-0.07 0.34,-0.13 0.54,-0.13l0 -0.6c0.53,-0.21 0.66,-0.68 2.21,-1.95 4.03,-0.67 5.23,1.74 4.7,5.7 -0.88,0.54 -1.95,1.68 -2.76,2.49 -0.26,-0.07 -0.53,-0.14 -0.8,-0.2 -0.27,0.6 -1.41,0.46 -2.08,0.53 -0.54,-0.67 -1.41,-1.14 -1.95,-1.95 0,-1.34 0.07,-2.61 0.14,-3.89z"/>
  <path class="fil3" d="M206.35 190.28c0,1.27 1.14,5.17 0.4,5.91 1.14,1.54 0.14,3.69 0.94,5.3 -0.87,1.74 0.81,3.96 0.2,5.83 0.48,0.47 0.4,2.42 0.4,3.02 1.08,1.35 -0.26,3.56 0.61,4.43 -0.13,1.07 -0.07,5.24 0.54,5.5 0.4,7.72 3.08,23.42 -7.65,25.57 -1.81,1.21 -15.9,3.55 -16.71,1.67 -3.75,-0.8 -6.98,-3.35 -9.72,-5.9 -0.07,-0.34 -0.07,-0.67 -0.07,-1.01 -0.21,-0.13 -0.34,-0.27 -0.47,-0.4 0,-0.67 0.06,-1.07 -0.41,-1.54 -0.13,-2.08 -0.2,-4.1 -0.26,-6.11 2.07,-6.5 4.16,-12.95 6.3,-19.39 -0.26,-0.27 -0.47,-0.53 -0.67,-0.81l-0.47 0c-0.8,1.75 -2.21,3.29 -2.48,5.24 -0.2,0.13 -0.33,0.27 -0.47,0.4 0.2,0.94 -1.68,4.57 -2.21,5.1 -1.01,5.5 -2.69,10.54 -2.89,16.24 -0.67,2.62 0.2,5.83 0,8.52 0.74,0.34 1.35,1.2 1.35,2.01 0.53,0.34 0.73,0.68 0.86,1.41 0.81,0.41 2.15,1.34 2.15,2.35 0.2,0 0.4,0 0.6,0.07 0,0.2 0,0.4 0.07,0.6 0.41,0.07 0.81,0.14 1.28,0.27 0.07,0.2 0.13,0.4 0.2,0.67 0.33,0.07 0.74,0.13 1.14,0.27 1.74,1.34 3.62,0.87 5.23,1.68 0.34,-0.14 0.68,-0.2 1.08,-0.27 0.06,0.13 0.13,0.33 0.26,0.53 3.16,-0.06 9.33,0.54 12.02,-0.8 2.21,0 7.98,-2.01 8.99,-3.56 3.15,-1.54 6.1,-6.24 7.24,-9.52 0.2,-1.41 0.2,-1.41 0.4,-16.65 -0.2,-0.06 -0.33,-0.13 -0.46,-0.2 -0.07,-2.75 -0.14,-5.5 -0.14,-8.25 -0.33,-2.55 -0.67,-5.1 -0.47,-7.65 -0.6,-0.4 -1.81,-17.11 -1.81,-17.64 -0.2,-0.14 -0.2,-1.75 -0.67,-4.1 0.2,-2.01 1,-2.88 2.75,-3.89 1.74,-1.74 1.08,-6.44 0.6,-8.79 -0.53,-0.67 -1.41,-0.94 -2.48,-1.81 -2.01,-0.47 -3.42,-3.09 -5.77,-3.09 0,1.35 -1.14,6.31 -0.6,6.85 -0.07,0.6 -0.07,0.6 -0.34,0.94 0.07,0.13 0.14,0.26 0.27,0.4 -0.87,1.81 0.13,9.39 1.34,10.6z"/>
  <path class="fil3" d="M259.22 232.42c-0.47,1.94 1.68,5.36 0.74,7.25 0.4,0.4 0.54,2.81 0.54,3.55 4.23,0.54 9.32,0.47 13.62,0.47 1.88,0.81 7.98,0.27 9.72,0.2 1.08,1.61 9.13,-0.6 11.08,0.94 0.8,-0.81 4.02,0 5.03,0.2 3.29,-0.33 7.31,-0.27 10.53,0.13 -0.33,-2.95 0.54,-6.23 0.81,-9.18 -0.67,-1.08 -2.35,-2.96 -3.69,-2.96 -0.07,-0.27 -0.13,-0.53 -0.2,-0.73 -0.2,-0.07 -0.34,-0.14 -0.47,-0.2l0 -0.61c-1.08,-0.2 -1.14,-0.4 -1.81,-1.28 -2.08,-1.81 -3.02,-2.41 -4.43,-4.63 -1.61,-0.8 -2.35,-2.55 -3.96,-3.48 -0.87,-1.75 -4.77,-6.05 -6.71,-6.78 -2.48,-3.36 -10.4,-2.89 -13.89,-2.96 -1.01,2.49 -2.48,6.18 -4.36,8.06 0.67,0.13 1.68,-0.07 2.01,0.67 0.07,-0.13 0.14,-0.2 0.27,-0.27 0.94,0.07 1.88,0.14 2.82,0.2 0.07,0.07 0.13,0.2 0.2,0.34 3.29,0 14.63,5.84 15.43,8.38 1.88,0.54 4.9,3.02 2.69,4.97 -0.88,-0.61 -7.18,-0.61 -9.13,-0.34 -0.33,-0.27 -0.33,-0.27 -3.96,-0.53 -1.47,0.6 -7.85,-0.2 -9.73,-0.47l-6.84 0c-0.07,-0.34 -0.14,-0.67 -0.14,-1.01 -1.67,-5.1 -2,-10.53 -3.15,-15.7 0,-2.01 -2.21,-13.49 -1.27,-14.43l-0.47 -0.46c-0.47,-7.66 -0.47,-7.66 -0.67,-8.32 0.07,-0.14 0.13,-0.27 0.27,-0.34 -0.47,-0.61 -0.61,-3.89 -0.27,-4.63 -0.54,-1.75 -0.47,-3.56 -0.47,-5.37 -0.27,-1.54 -0.54,-3.08 -0.74,-4.56 -0.54,1 -0.54,1 -1.27,1.54 0,0.07 -1.48,3.36 -1.55,3.89 0.47,3.36 1.95,9.93 0.87,13.22 1.21,3.09 -0.33,7.78 -0.2,11.27 -0.94,3.23 -1.81,6.51 -2.68,9.8 -0.67,0.74 -0.67,0.74 -1.61,2.69 -0.74,0.87 -2.22,2.07 -2.22,3.35 -0.73,0.47 -1.07,0.6 -1.27,1.54 -1.41,0.67 -2.08,2.35 -3.62,2.62 -0.41,1.68 -3.23,2.35 -4.23,3.89 -2.01,0.4 -4.16,2.01 -5.84,3.29 -0.2,-0.14 -0.34,-0.2 -0.47,-0.27 -1.14,0.81 -1.47,1.54 -3.15,1.54 -0.14,0.13 -0.27,0.27 -0.34,0.47 -3.89,1.88 -8.05,3.35 -11.94,4.97 -0.14,1.01 -0.27,2.01 -0.4,3.08 2.21,0 2.21,0 2.75,0.27 1.68,0 3.89,-0.74 5.17,0.54 0,-0.27 0.06,-0.47 0.13,-0.67 0.27,0 4.63,0 5.1,-0.47 3.42,-0.47 6.17,-1.54 9.39,-2.75 0.6,-0.74 0.6,-0.74 4.03,-2.95 0.27,-0.54 2.01,-2.22 3.49,-3.29 0.4,-0.67 0.33,-1.08 1.2,-1.34 0.27,-1.21 -1,-0.47 1.08,-1.62 0.47,-1.54 2.28,-3.08 2.28,-4.49 1.81,-2.75 3.09,-6.31 4.96,-9.13 0.21,0.2 0.21,0.2 -0.07,4.57 0,0.47 0.61,7.91 1.01,8.32z"/>
  <path class="fil3" d="M154.89 225.77c-2.08,-0.94 -2.08,-0.94 -2.35,-1.34 -1.68,-0.06 -5.23,-0.4 -6.04,1.21 -4.09,2.01 -7.04,10.67 -1.27,12.55 0.27,0.8 1.21,1.14 2.01,1.34 1.54,-0.07 5.57,-0.27 6.31,-1.75 3.22,-0.8 3.49,-6.03 3.62,-8.78 -0.54,-0.34 -0.6,-0.94 -0.67,-1.61l-1.61 -1.62zm-4.5 9.4l0 0c-1,0.06 -2.01,0.2 -2.95,0.33 -4.7,-1.74 -2.61,-4.96 -0.8,-7.91 1.74,-0.54 3.42,-1.28 5.16,-0.2 0.81,1.14 0.81,1.14 1.21,1.34 0,1.14 0,2.28 0.07,3.49 -0.87,0.67 -2.22,2.01 -2.69,2.95z"/>
  <polygon class="fil3" points="227.08,237.78 227.08,237.52 226.82,237.52 226.82,237.78 "/>
  <polygon class="fil3" points="316.52,237.78 316.52,237.52 316.32,237.52 316.32,237.78 "/>
  <path class="fil3" d="M328.47 228.32c-0.54,-0.73 -2.49,-3.62 -1.75,-4.56 -1.28,-1.61 -0.27,-3.82 -0.74,-5.37 0,-4.36 0.27,-12.54 -3.09,-15.9 -0.26,-0.8 -0.53,-1.61 -0.73,-2.41 -0.2,-0.07 -0.34,-0.14 -0.47,-0.2 0.2,-0.74 -0.4,-1.35 -0.87,-1.75 0.2,-0.67 -0.81,-2.95 -0.81,-4.03 -1.74,-2.14 -1.01,-8.65 0.88,-10.53 -0.07,-0.27 -0.14,-0.47 -0.21,-0.67 3.02,-3.02 -0.33,-5.1 -3.35,-3.49 -0.87,0.94 -1.75,1.88 -2.55,2.89 -2.01,0.4 -4.3,3.49 -5.77,4.83 -0.14,0.93 -0.14,0.93 -0.47,1.14 0,1.41 -0.74,4.69 -1.34,5.97 0.06,0.14 0.13,0.27 0.27,0.47 -0.48,3.08 0.33,4.09 1,6.85 0.74,-0.21 2.28,2.48 3.96,2.95 2.08,2.08 4.9,-0.14 6.71,-1.28 4.09,-0.27 5.03,7.45 4.56,10.4l0.6 0c0,0.74 -0.33,3.96 -0.6,4.09 0.14,0.14 0.34,0.27 0.54,0.41 -0.2,0.26 -0.2,0.26 -0.6,4.56 -1.82,1.48 -1.28,2.88 -2.09,4.96 -0.13,1.68 0.2,3.29 0,4.84 0.14,0.13 0.27,0.26 0.48,0.4 -0.14,1.27 0.53,3.35 1.87,3.75 3.69,-1.81 5.64,-4.42 4.57,-8.32zm-15.1 -27.44l0 0c-1.35,-1 -2.82,-1.47 -3.15,-3.35 -0.2,-0.07 -0.41,-0.14 -0.54,-0.2 -0.74,-4.16 1.34,-7.12 5.5,-6.31 0,0.13 0.07,0.33 0.13,0.53l0.61 0c2.82,3.16 1.94,8.06 -2.55,9.33z"/>
  <polygon class="fil3" points="354.97,234.16 354.97,234.43 355.24,234.43 355.24,234.16 "/>
  <path class="fil3" d="M233.19 195.31c1.34,-1.34 5.03,-1.87 5.03,0.88l0.88 0c0,0.26 0.06,0.54 0.13,0.87 0.2,0.13 0.4,0.27 0.67,0.4 0.34,1.54 2.01,2.68 2.01,4.16 2.89,1.68 3.83,7.72 6.71,9.86 0,0.87 0.87,1.35 1.28,2.15l1.34 0c0,-0.87 0,-1.74 0.07,-2.55 -0.14,-2.34 -1.35,-4.36 -1.35,-6.51 -1.74,-1.27 -2.14,-6.78 -3.82,-7.58 -0.2,-1.01 -1.14,-1.34 -1.34,-2.48 -1.48,-0.47 -1.21,-2.55 -2.55,-2.96 -0.41,-1.6 -3.36,-3.49 -3.22,-5.09 -3.29,-2.69 -6.58,-5.44 -10.4,-7.45 -0.14,-0.2 -0.27,-0.4 -0.34,-0.54 -1.67,-0.13 -5.64,-2.28 -6.78,-0.87 0.68,2.68 -1.07,5.37 0.68,7.98 0.2,1.95 0.87,2.28 1.6,4.17 2.35,0.94 4.64,4.09 6.31,6.03 1.41,0 1.41,0 3.09,-0.47z"/>
  <path class="fil3" d="M327.26 150.63c-0.74,0.87 -1.14,1.21 -1.41,2.28 -0.33,0.07 -0.67,0.13 -0.94,0.2 -0.33,0.6 -0.67,1.28 -1.01,1.95 -2.15,1.41 -6.17,6.44 -8.72,6.44l0 -0.88c-1.67,-1 -2.62,-2.88 -4.09,-4.22 -0.47,1.74 -0.94,3.49 -1.41,5.3 0.47,1.27 -0.94,10.53 0.74,11.34 0.94,-0.41 2.88,-1.55 3.22,-2.55 1.01,-0.2 3.56,-2.42 3.96,-3.29 0.2,0.07 0.4,0.14 0.67,0.2 0.67,-0.54 0.67,-2.14 2.14,-1.94 0.68,-0.54 0.68,-0.54 0.94,-1.28l1.01 0c0,-0.33 0,-0.6 0.07,-0.87 0.26,-0.14 0.53,-0.2 0.8,-0.27 0,-0.2 0,-0.4 0.07,-0.61 0.6,-0.4 1.28,-0.73 1.94,-1.07 4.1,-4.89 10,-8.52 15.17,-12.14 1.07,1.07 1.81,2.08 3.35,2.28 1.28,1.81 1.28,1.81 1.75,2.01 -0.07,0.61 -0.07,0.61 0.2,1.14 0.2,0.07 0.47,0.14 0.74,0.2 -0.07,0.27 -0.07,0.61 -0.07,0.94 0.2,0.14 0.47,0.27 0.74,0.48 -0.27,0.6 3.29,6.97 3.96,7.98 -1.41,1.47 -2.62,3.55 -4.5,4.49 -0.54,1.75 -2.48,1.81 -3.29,3.43 -0.26,0.06 -0.53,0.13 -0.73,0.2 -0.07,0.13 -0.14,0.26 -0.14,0.47 -1.07,0.13 -1.94,0.53 -2.21,1.47 -3.76,1.61 -7.52,3.49 -11.54,4.3 -1.41,-1.88 -2.09,-4.3 -1.81,-6.71 -0.2,-0.27 -0.2,-0.88 -1.55,-3.83l-0.6 0c-0.61,0.81 -2.08,4.16 -1.34,4.9 -0.41,0.67 0.27,1.68 -0.54,2.08 0.06,4.03 -0.2,4.49 -0.14,5.64 -0.53,0.8 -0.6,3.28 -0.26,4.29 -0.61,0.88 0,2.08 0.06,3.08 -0.13,0 -0.26,0.08 -0.4,0.14 0.8,0.54 0.87,5.1 1.01,6.04 0.2,0.07 0.4,0.14 0.6,0.2 0.94,-0.47 0.94,-0.47 1.54,-1.27 3.29,-1.08 3.56,-3.09 6.85,-1.21 0.33,3.02 -0.54,7.85 -0.74,10.6 1.01,1.61 1.54,2.95 2.89,4.29 0.93,2.42 2.81,2.95 5.1,3.83l0 0.47c0.4,-0.34 0.8,-0.61 1.2,-0.87 -0.2,-1.21 -0.67,-2.08 -1.14,-3.97 -0.6,-1 -1.34,-1.87 -1.34,-3.08 -2.35,-3.15 0.67,-3.96 0.67,-6.78 0.13,-0.13 0.27,-0.2 0.47,-0.26 -0.06,-0.27 -0.06,-0.47 -0.06,-0.68 0.86,0 4.42,0.34 4.96,-0.2 1.94,0.27 4.56,0 6.44,-0.2 1.75,0.13 7.38,0.74 8.99,-0.2 3.22,0.2 14.43,-1.27 14.09,1.21 0.67,0.8 0.88,1.21 0.88,2.21 0.6,0.6 0.6,0.6 1.2,1.88 1.28,0.2 2.55,0.47 3.89,0.74 0.14,-0.27 0.27,-0.54 0.41,-0.74 -0.47,-0.74 -2.42,-4.09 -3.29,-4.09 -0.81,-1.48 -1.21,-2.95 -2.69,-3.83 -0.06,-0.4 -0.13,-0.8 -0.13,-1.14 -1.41,-1.14 -4.5,-10.06 -4.09,-11.41 -0.74,-0.73 -0.88,-1.33 -0.88,-2.41 -0.94,-1.2 -1.67,-3.08 -2.01,-4.56 -0.2,-0.07 -0.33,-0.14 -0.47,-0.14 -0.4,-1.2 -1.41,-2.61 -1.07,-3.75 -0.34,-0.34 -0.6,-0.68 -0.88,-0.94 -1.2,-2.62 -5.29,-12.55 -7.51,-13.29 -0.07,-0.4 -0.13,-0.8 -0.13,-1.14 -2.42,-1.67 -2.89,-4.76 -4.9,-6.5 -1.81,0 -4.16,-5.1 -5.84,-6.18 -0.27,-1.27 -3.49,-4.49 -4.49,-4.69 -0.07,-0.34 -0.14,-0.68 -0.2,-0.95 -0.21,-0.06 -0.41,-0.06 -0.54,-0.06 -0.74,1.41 -1.88,2.68 -2.08,3.29 -2.49,0.94 -3.22,4.15 -5.44,5.63 -2.08,2.55 -2.75,2.96 -5.7,6.64 -0.13,-0.06 -0.27,-0.06 -0.4,-0.06zm27.98 24.76l0 0c-0.07,0.13 -0.14,0.26 -0.14,0.47 1.55,1.14 2.89,2.28 2.89,4.49 0.2,0.07 0.4,0.13 0.67,0.27 -0.07,0.2 -0.14,0.4 -0.2,0.6 1.2,0.81 2.75,6.92 2.62,8.53 -0.48,0 -0.94,0.06 -1.42,0.13 -0.06,-0.2 -0.13,-0.4 -0.13,-0.54 -0.47,0.14 -0.94,0.34 -1.41,0.54 -0.94,-0.47 -2.21,-0.13 -2.95,-0.6 -0.4,0.4 -9.53,-0.27 -10.2,-0.68 -0.13,0.07 -0.27,0.14 -0.33,0.27 -1.61,-1.07 -4.1,0.2 -6.04,-0.73 -0.74,0.26 -0.74,0.26 -2.15,0.2 0.34,-2.22 3.69,-5.71 5.77,-6.45 -0.07,-0.26 -0.07,-0.53 -0.07,-0.73 1.14,-0.74 1.34,-1.21 2.08,-1.48 1.75,-2.62 7.99,-4.9 11.01,-4.29z"/>
  <polygon class="fil3" points="361.94,210.28 361.94,210 361.68,210 361.68,210.28 "/>
  <path class="fil3" d="M104.3 206.31c0.06,0.08 0.13,0.21 0.2,0.34l0.67 0c-0.27,-0.8 -1.27,-1.07 -1.88,-1.68 0,0.41 0,0.81 0.07,1.28 0.27,0 0.6,0 0.94,0.06z"/>
  <path class="fil3" d="M102.62 205.24c-0.13,-0.06 -0.27,-0.13 -0.33,-0.13l0 0.47c0.06,-0.13 0.2,-0.27 0.33,-0.34z"/>
  <polygon class="fil3" points="102.02,204.24 101.61,204.24 101.61,204.64 102.02,204.64 "/>
  <path class="fil3" d="M373.29 171.16c0.06,0.33 0.13,0.74 0.2,1.14 1.81,1.81 2.48,4.29 3.62,6.64 1.01,0.6 1.94,1.95 1.81,3.16 0.87,0.73 1.48,1.54 1.81,2.68 2.35,0.74 2.69,8.79 3.49,10.94 0.94,0.06 0.94,0.06 2.08,0.47 0.07,-0.07 0.21,-0.14 0.34,-0.21 0.4,-2.41 0.74,-5.63 -0.27,-7.92 0.06,-0.26 0.14,-0.53 0.2,-0.73 -0.74,-1.07 -1,-1.75 -1.14,-3.02 -0.27,-0.07 -0.47,-0.07 -0.67,-0.07 -0.07,-0.6 -0.2,-0.87 -0.61,-1.27l0 -1.21c-0.26,-0.07 -0.53,-0.13 -0.73,-0.2 -0.41,-1.74 -2.08,-3.09 -3.29,-4.5 0.4,-0.53 -1.48,-4.83 -2.01,-5.5 0,-2.21 -1.82,-4.16 -2.96,-5.9 -1.2,-0.14 -2.01,0.13 -3.08,0.4 -0.21,1.47 -0.27,4.36 1.21,5.1z"/>
  <path class="fil3" d="M159.72 173.58c0,-0.41 0,-0.74 0.07,-1.08 0.94,-0.27 3.28,-2.82 3.28,-3.82 -0.47,0.06 -0.47,0.06 -2.95,-1.08 -0.4,0.47 -0.4,0.47 -0.53,1.48 -0.68,0.67 -2.02,2.88 -2.02,3.82 -1.41,0.61 -2.81,0.61 -4.36,0.61 -0.4,-1.48 -3.22,-5.44 -4.63,-6.24 -0.06,-0.41 -2.08,-3.89 -2.41,-4.03 -0.54,-2.82 -4.97,-3.02 -7.25,-3.08 0.6,1.34 2.95,4.96 4.36,5.63 0.67,1.41 2.82,2.15 2.82,3.76 0.27,0 0.54,0 0.8,0.06 0.81,1.15 4.37,4.64 2.42,6.11 0.2,0.41 0.2,0.41 0,3.29l1.34 0c0.54,-0.74 1.14,-1.48 1.75,-2.22 1.87,0.94 0.67,2.82 1.21,4.57 -0.48,0.67 -0.88,1.41 -1.28,2.15 -0.87,0 -1.14,-0.48 -1.68,-1.01l0 -0.74c-0.6,-0.27 -0.87,-0.94 -1.54,-0.94 0,2.42 1.95,4.23 3.89,5.7 0.74,-0.6 1.68,-2.48 2.01,-2.75 1.14,0 1.68,1.41 2.49,2.02 0.46,-0.34 0.94,-0.68 1.4,-0.94 0.2,-1.28 -0.4,-5.44 0,-5.84 -0.2,-1.81 0.07,-3.56 0.2,-5.37 0.2,-0.06 0.41,-0.06 0.61,-0.06z"/>
  <polygon class="fil3" points="302.9,182.77 303.1,182.77 303.1,182.5 302.9,182.5 "/>
  <path class="fil3" d="M303.84 158.95c-0.6,-0.27 -0.6,-0.27 -2.48,-2.02 -8.32,-1.4 -6.91,9.4 -5.77,14.16 -2.68,2.01 -1.28,5.91 -0.87,8.52 1.4,0.87 1.74,1.68 3.42,2.08 0.07,0.27 0.13,0.54 0.27,0.81 0.33,-0.13 0.73,-0.27 1.14,-0.34 6.1,2.28 6.24,-8.92 5.03,-12.01 0.06,-0.4 0.13,-0.74 0.2,-1.07 2.08,-2.82 0.4,-7.38 -0.94,-10.13zm-1.54 18.92l0 0c-0.94,0.47 -1.68,0.54 -2.55,0.87 -0.54,-0.4 -0.54,-0.4 -1.21,-0.4 -0.07,-0.34 -0.13,-0.67 -0.2,-0.94 -2.42,-1.61 -0.54,-6.51 2.82,-5.3 0.74,1 0.74,1 1.54,1.61 0.07,1.34 0.07,1.34 -0.4,4.16zm0.67 -10.27l0 0c-0.87,0.6 -1.27,1.08 -2.35,1.28 -1.95,-1.14 -3.29,-2.28 -3.89,-4.5 0.2,-2.75 0.53,-5.23 3.89,-5.23 0.61,0.33 1.21,0.67 1.81,1.01 0,0.2 0,0.4 0.07,0.6 0.2,0.06 0.4,0.13 0.67,0.2 0.47,2.28 0.47,2.28 0.47,3.96 -0.67,0.67 -0.6,1.68 -0.67,2.68z"/>
  <polygon class="fil3" points="228.43,177.4 228.16,177.4 228.16,177.6 228.43,177.6 "/>
  <path class="fil3" d="M254.86 149.82c-2.34,-3.15 -4.56,-4.29 -8.72,-3.89 -0.74,1.14 -2.82,1.01 -3.42,2.22 -4.36,3.01 -2.69,5.16 -3.09,9.52 0.27,0.34 0.54,0.67 0.81,1.01 0.33,2.01 2.21,2.14 3.82,3.29 1.01,-0.67 4.03,-0.4 5.03,-0.4 4.9,-2.42 6.44,-6.31 5.57,-11.75zm-2.75 3.42l0 0c-0.13,0 -0.27,0.07 -0.4,0.14 0,0.27 0,0.6 0.06,0.94 -1.67,1.81 -1.67,1.81 -2.14,2.01l0 0.47 -0.4 0 0 0.47c-0.88,0 -1.21,-0.07 -2.02,0.4 -2.08,-0.27 -2.61,-0.6 -4.09,-1.88l0 -1.54c-0.13,-0.07 -0.27,-0.13 -0.4,-0.13 0,-2.02 0.73,-2.28 1.21,-3.69 0.6,-0.27 0.73,-0.68 0.93,-1.28 1.41,-0.67 2.82,-1.34 4.43,-1.14 0.81,0.6 0.81,0.6 1.95,0.94 0,1.61 1,2.35 0.87,4.29z"/>
  <path class="fil3" d="M229.7 145.93c0.13,1.28 1.14,4.09 2.35,4.9 0.61,-0.07 1.21,-0.14 1.81,-0.2 0.34,-0.61 0.74,-1.48 1.61,-1.34 1.54,-1.01 2.68,-4.37 4.16,-5.84 0.67,-2.22 1.48,-3.76 2.95,-5.37 -0.06,-0.14 -0.13,-0.27 -0.2,-0.4 1.27,-1.95 2.55,-4.23 3.42,-6.31 2.35,-3.56 5.03,-7.38 7.18,-11l0.47 0c0.41,-1.28 1.55,-3.36 3.16,-3.36 0.26,1.21 0.8,2.22 1.2,3.36 0.81,5.36 0.94,10.8 1.88,16.1 -0.13,0 -0.27,0.07 -0.4,0.13l0.2 1.42 0.47 0c-0.4,2.41 0.54,4.62 0.27,6.9 1.01,1.01 1.61,10.34 1.54,12.82 0.87,0.54 0.94,0.8 1.08,1.74 0.46,0.14 1,0.27 1.54,0.48 2.21,-0.34 3.09,-0.28 4.76,-1.95 0.94,-2.68 3.62,-6.78 3.62,-9.6 -0.8,-0.06 -1.6,-0.06 -2.41,-0.06 -0.07,0.06 -0.13,0.2 -0.2,0.33 -0.67,-0.07 -1.34,-0.13 -1.94,-0.13 -0.81,-1.75 -0.81,-1.75 -1.48,-2.49 -0.54,-2.21 -5.84,-17.24 -3.96,-19.12 -0.2,-0.27 -0.4,-0.47 -0.54,-0.67 0.47,-0.67 0.34,-1.68 -0.2,-2.21 0.47,-0.94 0.2,-6.31 0.2,-7.65 0.47,-1.01 0.47,-1.01 0.47,-2.08 2.28,-3.35 5.44,-6.31 9.13,-7.98 0.87,-1.28 1.74,-2.02 3.02,-2.76 -0.34,-0.67 1.14,-1.34 1.47,-1.54 0.67,-1.48 1.95,-2.68 2.22,-4.43 -1.01,-0.2 -1.61,-0.27 -2.42,-0.87 -4.16,0 -8.45,-2.41 -12.82,-2.68 -0.6,-0.61 -12.54,-2.96 -14.02,-2.22 0,0.6 0,0.6 -0.26,1.08 0.06,0.06 0.13,0.2 0.26,0.33 0,3.22 1.48,6.24 2.28,9.32 1.08,1.68 3.96,7.92 1.55,9.13 -0.88,2.42 -3.29,3.89 -4.09,6.38 -1.41,1.2 -2.29,4.09 -3.63,4.76 -0.07,0.2 -0.07,0.4 -0.07,0.6 -0.8,0.54 -1.54,1.08 -2.28,1.68 -0.4,1.21 -3.49,5.71 -4.83,5.71 -0.4,2.21 -3.82,2.61 -3.82,4.42 -0.34,0 -0.6,0 -0.88,0.07 -0.06,0.2 -0.13,0.4 -0.13,0.61 -2.01,0.86 -3.89,2.41 -5.91,2.94 0.34,2.49 1.01,4.64 1.55,7.05l0.67 0zm42.07 -47.04l0 0c0.07,0 0.2,0.08 0.34,0.14 -0.14,0.07 -0.27,0.14 -0.34,0.27l0 -0.41zm-11.87 0.08l0 0c2.74,0.33 5.49,1.2 8.18,1.6l0 0.81c-2.28,1.94 -3.96,4.36 -6.44,6.24 -0.07,0.2 -0.14,0.4 -0.14,0.67l-0.67 0c-0.6,-0.88 -1.81,-8.46 -0.93,-9.32z"/>
  <path class="fil3" d="M213.73 102.79c0.34,0.47 0.47,1.74 0.88,2.62 -0.48,3.28 1.14,6.84 1.34,10.19 0.53,2.89 1.34,6.71 0.87,9.67 0.34,1.88 1.34,13.61 0,14.96 0.07,0.06 0.2,0.13 0.34,0.26 0,2.22 -2.02,3.43 -3.69,4.7 0.4,2.15 3.42,4.3 3.42,6.11 1.67,0.4 3.08,4.36 4.42,5.7 0,1.08 1.08,2.15 1.95,2.68 2.15,-0.6 -0.33,-20.39 0.27,-23.81 -0.14,-0.14 -0.4,-8.39 0.06,-8.86 -1.14,-6.38 -0.73,-13.42 -1.14,-19.86 0.07,-0.14 0.14,-0.27 0.28,-0.34 -0.61,-0.8 0.06,-1.94 -0.74,-2.75 -0.34,-5.03 -0.68,-10.06 -0.94,-15.03 -0.74,-0.13 -0.74,-0.13 -3.49,0.07 0,-0.2 0.06,-0.4 0.13,-0.54 -1.28,0.34 -3.89,0.34 -5.57,0.67 0.07,0.07 0.2,0.14 0.34,0.27 0.2,3.9 1.87,10.07 1.27,13.29zm9.06 53.81l0 0 0.27 0 0 0.2 -0.27 0 0 -0.2z"/>
  <polygon class="fil3" points="223.06,156.6 222.79,156.6 222.79,156.8 223.06,156.8 "/>
  <polygon class="fil3" points="228.63,154.99 228.63,155.26 228.83,155.26 228.83,154.99 "/>
  <path class="fil3" d="M275.06 128.76c-0.27,2.95 3.15,5.63 5.63,6.84 0.54,1.94 4.1,3.49 5.91,3.89 0.07,0.14 0.13,0.34 0.2,0.54 0.53,-0.14 0.53,-0.14 1.74,0.2l0 0.47c0.81,-0.13 0.81,-0.13 2.02,0.2 3.22,-0.54 8.79,0.2 11.07,-2.75 0.27,-4.83 0.27,-4.83 0.53,-5.17 -0.6,-1.48 -0.67,-3.15 -0.8,-4.76 0.13,-0.07 0.27,-0.14 0.4,-0.21 -0.13,-0.06 -0.27,-0.13 -0.4,-0.13 -0.2,-1.41 -1.07,-2.88 -1.07,-4.43 2.01,-1.41 7.24,4.3 9.46,5.04 0.06,0.33 0.13,0.67 0.27,1 1.8,0.61 1.94,0.41 3.42,1.95 0.33,0.06 0.67,0.13 1,0.2 0.07,0.27 0.13,0.54 0.27,0.8 0.27,0 0.54,0 0.87,0.07 0.47,0.94 2.48,1.68 3.49,2.02 2.08,-1.55 9.6,-0.81 10.74,-3.09 -0.74,-0.47 -1.14,-1.21 -2.02,-1.74 -0.06,-0.34 -0.06,-0.61 -0.06,-0.88 -1.75,-0.33 -4.16,-2.55 -5.17,-3.96 -0.6,0.27 -4.76,-3.89 -5.97,-3.89 -0.27,-0.8 -0.8,-1 -1.61,-1.14 -0.87,-1.34 -1.75,-1.74 -3.16,-2.55 -2.48,-2.89 -6.77,-4.43 -9.72,-7.11 -1.21,0 -5.5,1.34 -6.38,2.21l-1.27 0c-1.74,1.75 -4.9,1.08 -4.43,3.96 0.14,0.07 0.27,0.14 0.4,0.2 0.47,1.55 0.47,1.55 0.47,2.55 2.02,1.75 1.01,8.12 0.87,9.93 -3.02,3.63 -7.04,3.29 -11.4,2.02 -0.07,-0.2 -0.14,-0.41 -0.2,-0.54 -2.01,-0.6 -2.75,-0.8 -4.23,-2.28 -0.33,0.13 -0.61,0.33 -0.87,0.54z"/>
  <path class="fil3" d="M188.1 104.2c-0.6,-0.14 -0.6,-0.14 -0.94,0.2 -0.6,-0.07 -0.6,-0.07 -1.61,0.2 -0.87,0.87 -8.39,3.56 -9.99,3.56 -2.95,1.34 -3.9,2.08 -5.98,3.08 -1.81,0.2 -3.55,1.07 -4.83,2.35 -0.6,2.42 -2.28,6.04 -0.8,8.45l1.14 0c2.48,-1.81 7.65,-1.47 10.53,-1.34 0.74,0.27 1.48,0.54 2.22,0.88 0.93,1.14 1.87,2.28 2.88,3.49 -0.13,0.73 -0.07,0.93 0.33,1.54 0,4.63 -5.69,5.37 -8.65,7.71 -0.33,-0.07 -0.33,-0.07 -1.14,0.34 0,1.41 0.2,2.01 0.54,3.15 3.35,-0.67 7.11,-1.07 10.2,-2.62 3.08,0.34 7.51,-1.87 9.46,-4.22 1.81,-0.87 3.48,-4.09 3.96,-6.17 0,-4.1 -5.1,-5.37 -8.13,-6.58 -0.26,0 -0.53,0 -0.73,0.07 -0.13,-0.27 -0.27,-0.54 -0.4,-0.74l-1.62 0c-0.13,-0.2 -0.26,-0.34 -0.33,-0.47 -1.47,-0.07 -2.42,-0.4 -3.69,-0.74 0.47,-0.8 7.11,-2.75 8.39,-2.75 3.75,-1.88 9.12,-1.74 12.74,-3.89 1.55,-2.69 1.68,-7.38 2.29,-10.47 0,0 -15.17,3.56 -15.84,4.97z"/>
  <path class="fil3" d="M164.89 104.13c0.06,0.07 0.13,0.2 0.2,0.33 1,-0.46 4.63,-0.6 4.89,-1 2.09,-0.54 4.17,-2.82 6.11,-2.82l0 -0.61c2.42,-0.46 4.36,-4.22 7.18,-4.69 0.54,-1.61 5.84,-2.89 6.98,-2.35 0.07,-0.13 0.2,-0.2 0.33,-0.27 1.48,0.07 2.96,0.14 4.5,0.21 0.74,-0.94 1.01,-1.68 1.14,-3.02 -1.54,-0.07 -11.21,-1.41 -11.88,-0.34 -5.3,1.14 -7.18,5.84 -11.94,7.85 -2.42,2.41 -12.41,1.14 -9.66,6.64 0.67,0 1.41,0 2.15,0.07zm29.05 -12.88l0 0 0.47 0 0 0.26 -0.47 0 0 -0.26z"/>
  <path class="fil3" d="M272.11 99.03c-0.14,-0.06 -0.27,-0.14 -0.34,-0.14l0 0.41c0.07,-0.13 0.2,-0.2 0.34,-0.27z"/>
  <polygon class="fil3" points="194.41,91.25 193.94,91.25 193.94,91.51 194.41,91.51 "/>
 </g>
</svg>
